<?xml version="1.0" encoding="UTF-8"?><svg id="Layer_1" xmlns="http://www.w3.org/2000/svg" xmlns:xlink="http://www.w3.org/1999/xlink" viewBox="0 0 220 220"><defs><clipPath id="clippath"><rect width="220" height="220" fill="none"/></clipPath><linearGradient id="linear-gradient" x1="117.136" y1="205.4836" x2="118.3745" y2="72.5535" gradientUnits="userSpaceOnUse"><stop offset="0" stop-color="#fff"/><stop offset="1" stop-color="#1e7ae0"/></linearGradient><filter id="drop-shadow-1" filterUnits="userSpaceOnUse"><feOffset dx="1" dy="4"/><feGaussianBlur result="blur" stdDeviation="2"/><feFlood flood-color="#0557a0" flood-opacity=".1"/><feComposite in2="blur" operator="in"/><feComposite in="SourceGraphic"/></filter><linearGradient id="linear-gradient-2" x1="22.4379" y1="124.3485" x2="71.0089" y2="158.334" gradientUnits="userSpaceOnUse"><stop offset="0" stop-color="#7acab4"/><stop offset="1" stop-color="#22a682"/></linearGradient><filter id="drop-shadow-2" filterUnits="userSpaceOnUse"><feOffset dx="2" dy="5"/><feGaussianBlur result="blur-2" stdDeviation="4"/><feFlood flood-color="#0557a0" flood-opacity=".27"/><feComposite in2="blur-2" operator="in"/><feComposite in="SourceGraphic"/></filter><linearGradient id="linear-gradient-3" x1="103.8672" y1="75.9525" x2="158.7846" y2="107.0378" gradientUnits="userSpaceOnUse"><stop offset="0" stop-color="#5299e7"/><stop offset="1" stop-color="#1e7ae0"/></linearGradient><linearGradient id="linear-gradient-4" x1="91.3691" y1="98.0325" x2="146.2865" y2="129.1178" xlink:href="#linear-gradient-3"/><linearGradient id="linear-gradient-5" x1="78.873" y1="120.0479" x2="133.7904" y2="151.1333" xlink:href="#linear-gradient-3"/><filter id="drop-shadow-3" filterUnits="userSpaceOnUse"><feOffset dx="-2" dy="6"/><feGaussianBlur result="blur-3" stdDeviation="2"/><feFlood flood-color="#0557a0" flood-opacity=".1"/><feComposite in2="blur-3" operator="in"/><feComposite in="SourceGraphic"/></filter><filter id="drop-shadow-4" filterUnits="userSpaceOnUse"><feOffset dx="2" dy="2"/><feGaussianBlur result="blur-4" stdDeviation="3"/><feFlood flood-color="#0557a0" flood-opacity=".17"/><feComposite in2="blur-4" operator="in"/><feComposite in="SourceGraphic"/></filter></defs><g clip-path="url(#clippath)"><g><path d="m122.2213,33.2878c30.5439.2443,59.3348,19.156,73.0918,44.1442,13.757,24.9882,12.48,56.0528-.6853,77.0799-13.1653,21.0271-38.2814,32.1356-68.4266,36.0484-30.2077,4.0319-65.4444.8682-82.704-20.3407-17.2596-21.2089-16.661-60.5255-.2728-89.4266,16.4507-29.0201,48.5095-47.5681,78.9968-47.5053Z" fill="url(#linear-gradient)" isolation="isolate" opacity=".15"/><path d="m103.7351,175.0814h-5.3612v-54.9602c0-1.2293-.9965-2.2258-2.2258-2.2258H14.034c-1.2293,0-2.2258.9965-2.2258,2.2258v54.9602h-5.3612c-.1756,0-.318.1424-.318.318v.3804c0,1.4049,1.1389,2.5438,2.5438,2.5438h92.8366c1.4049,0,2.5438-1.1389,2.5438-2.5438v-.3804c0-.1756-.1424-.318-.318-.318Z" fill="#fff" filter="url(#drop-shadow-1)"/><g id="laptop"><g><path d="m14.034,117.8953h82.1141c1.2285,0,2.2258.9974,2.2258,2.2258v55.3094H11.8081v-55.3094c0-1.2285.9974-2.2258,2.2258-2.2258Z" fill="url(#linear-gradient-2)"/><rect x="15.3819" y="121.287" width="79.4182" height="51.5469" rx=".7949" ry=".7949" fill="#fff"/><g><rect x="18.2231" y="124.2926" width="34.7626" height="22.0576" rx="1.1744" ry="1.1744" fill="#d8deed"/><rect x="56.6903" y="124.2926" width="35.2686" height="3.124" rx="1.1744" ry="1.1744" fill="#e5eaf5"/><rect x="56.6903" y="130.2652" width="35.2686" height="1.562" rx=".1484" ry=".1484" fill="#e5eaf5"/><rect x="56.6903" y="134.6788" width="35.2686" height="1.562" rx=".1484" ry=".1484" fill="#e5eaf5"/><rect x="56.6903" y="139.0924" width="35.2686" height="1.562" rx=".1484" ry=".1484" fill="#e5eaf5"/><rect x="56.6903" y="143.5059" width="19.2812" height="1.562" rx=".1097" ry=".1097" fill="#e5eaf5"/><g><g><circle id="Oval" cx="28.5762" cy="158.0107" r="6.3982" fill="#22a682"/><path id="Combined_Shape" d="m25.6002,161.5818c0-1.5613,1.3323-2.8271,2.9759-2.8271s2.9759,1.2658,2.9759,2.8271h-5.9519Zm1.3392-5.1335c.021-.8832.7535-1.5825,1.6368-1.5624.8833-.0201,1.6158.6791,1.6368,1.5624-.021.8832-.7535,1.5825-1.6368,1.5624-.8833.0201-1.6158-.6791-1.6368-1.5624Z" fill="#f2f6fb"/><rect id="Text-2" x="22.1779" y="166.7896" width="12.7965" height="2.6783" rx="1.1963" ry="1.1963" fill="#e1e5f0"/></g><g><circle id="Oval-2" cx="55.4936" cy="158.0107" r="6.3982" fill="#d8deed"/><path id="Combined_Shape-2" d="m52.5176,161.5818c.0208-1.5818,1.3197-2.8474,2.9015-2.8271,1.5818-.0203,2.8807,1.2453,2.9015,2.8271h-5.8031Zm1.3392-5.1335c.021-.8832.7535-1.5825,1.6368-1.5624.8833-.0201,1.6158.6791,1.6368,1.5624-.021.8832-.7535,1.5825-1.6368,1.5624-.8833.0201-1.6158-.6791-1.6368-1.5624Z" fill="#f2f6fb"/><rect id="Text-4" x="49.0953" y="166.7896" width="12.7965" height="2.6783" rx="1.1963" ry="1.1963" fill="#e1e5f0"/></g><g><circle id="Oval_Copy" cx="82.5598" cy="158.0107" r="6.3982" fill="#d8deed"/><path id="Combined_Shape_Copy" d="m79.5838,161.5818c.0208-1.5818,1.3197-2.8474,2.9015-2.8271,1.5818-.0203,2.8807,1.2453,2.9015,2.8271h-5.8031Zm1.3392-5.1335c.021-.8832.7535-1.5825,1.6368-1.5624.8833-.0201,1.6158.6791,1.6368,1.5624-.021.8832-.7535,1.5825-1.6368,1.5624-.8833.0201-1.6158-.6791-1.6368-1.5624Z" fill="#f2f6fb"/><rect id="Text-6" x="76.0127" y="166.7896" width="12.9453" height="2.6783" rx="1.1963" ry="1.1963" fill="#e1e5f0"/></g></g></g></g><path d="m6.4469,175.0813h97.2882c.1755,0,.318.1425.318.318v.3804c0,1.404-1.1398,2.5438-2.5438,2.5438H8.6727c-1.404,0-2.5438-1.1398-2.5438-2.5438v-.3804c0-.1755.1425-.318.318-.318Z" fill="#1d8f70"/><path d="m46.6946,175.4767c0,.6741.5516,1.2257,1.2257,1.2257h14.3414c.6741,0,1.2257-.5516,1.2257-1.2257,0-.1384-.0243-.2711-.0671-.3954h-16.6585c-.0427.1243-.0671.257-.0671.3954Z" opacity=".1"/><path d="m55.568,119.5993c0,.2634-.2135.477-.477.477s-.477-.2136-.477-.477.2136-.477.477-.477.477.2136.477.477Z" fill="#fff"/></g><path d="m160.2292,95.5758c1.9699,0,3.6114-1.6416,3.6114-3.6114v-16.3501c0-1.9699-1.6416-3.6114-3.6114-3.6114h-85.0337c-1.9699,0-3.6114,1.6416-3.6114,3.6114v16.3501c0,1.9699,1.6416,3.6114,3.6114,3.6114h.394v5.5814h-.394c-1.9699,0-3.6114,1.6416-3.6114,3.6114v16.3501c0,1.9699,1.6416,3.6114,3.6114,3.6114h.394v5.5157h-.394c-1.9699,0-3.6114,1.6416-3.6114,3.6114v16.3501c0,1.9699,1.6416,3.6114,3.6114,3.6114h.394v5.2531c0,.4596.3283.788.788.788h82.5384c.4596,0,.788-.3284.788-.788v-5.2531h.5253c1.9699,0,3.6114-1.6416,3.6114-3.6114v-16.3501c0-1.9699-1.6416-3.6114-3.6114-3.6114h-.5253v-5.5157h.5253c1.9699,0,3.6114-1.6416,3.6114-3.6114v-16.3501c0-1.9699-1.6416-3.6114-3.6114-3.6114h-.5253v-5.5814h.5253Z" fill="#fff" filter="url(#drop-shadow-2)" opacity=".8"/><g><path d="m76.3775,83.7565h82.5384c.4596,0,.788.3283.788.788v74.5276c0,.4596-.3283.788-.788.788h-82.5384c-.4596,0-.788-.3283-.788-.788v-74.5276c0-.4596.3283-.788.788-.788Z" fill="#0f64bf"/><path d="m75.1955,72.0028h85.0336c1.9699,0,3.6115,1.6416,3.6115,3.6115v16.3501c0,1.9699-1.6416,3.6115-3.6115,3.6115h-85.0336c-1.9699,0-3.6115-1.6416-3.6115-3.6115v-16.3501c0-1.9699,1.6416-3.6115,3.6115-3.6115Z" fill="url(#linear-gradient-3)"/><path d="m75.1955,101.1572h85.0336c1.9699,0,3.6115,1.6416,3.6115,3.6115v16.3501c0,1.9699-1.6416,3.6115-3.6115,3.6115h-85.0336c-1.9699,0-3.6115-1.6416-3.6115-3.6115v-16.3501c0-1.9699,1.6416-3.6115,3.6115-3.6115Z" fill="url(#linear-gradient-4)"/><path d="m75.1955,130.2459h85.0336c1.9699,0,3.6115,1.6416,3.6115,3.6115v16.3501c0,1.9699-1.6416,3.6115-3.6115,3.6115h-85.0336c-1.9699,0-3.6115-1.6416-3.6115-3.6115v-16.3501c0-1.9699,1.6416-3.6115,3.6115-3.6115Z" fill="url(#linear-gradient-5)"/><circle cx="81.8275" cy="83.7565" r="3.1593" fill="#fff" opacity=".8"/><circle cx="92.9245" cy="83.7565" r="3.1593" fill="#fff" opacity=".8"/><circle cx="104.0216" cy="83.7565" r="3.1593" fill="#fff" opacity=".8"/><circle cx="81.8275" cy="112.9437" r="3.1593" fill="#fff" opacity=".8"/><circle cx="92.9245" cy="112.9437" r="3.1593" fill="#fff" opacity=".8"/><circle cx="104.0216" cy="112.9437" r="3.1593" fill="#fff" opacity=".8"/><circle cx="81.8275" cy="142.131" r="3.1593" fill="#fff" opacity=".8"/><circle cx="92.9245" cy="142.131" r="3.1593" fill="#fff" opacity=".8"/><circle cx="104.0216" cy="142.131" r="3.1593" fill="#fff" opacity=".8"/></g><g><g id="Group_15368"><g filter="url(#drop-shadow-3)"><ellipse id="Ellipse_1187-2" cx="175.0097" cy="71.8231" rx="40.5079" ry="40.1751" fill="#fff"/></g><g id="Group_15367"><path id="Path_24207" d="m145.9816,76.0372c-.4879.1611-.9564.2827-1.3447-.1314-.473-.5616-1.2205-.8113-1.9361-.6465.4431-.3834,1.0776-.4515,1.5919-.1709.4523.2262.9219.4168,1.378.6359.1327.0707.241.1798.3108.3129Z" fill="#eaeaea"/><path id="Path_24208" d="m134.7637,74.0802c.0085.1784.0193.3569.0328.5351.043-.0343.0861-.0669.1291-.0994-.0553-.1441-.1087-.2898-.1619-.4357Zm24.8395-39.4272c-.4973.2055-.9895.4217-1.4765.6484.2615.5438.5093,1.0635.8261,1.7239.3596-.8165.6359-1.4476.9294-2.1149-.0963-.0873-.1875-.1708-.2788-.2565l-.0002-.001Zm2.9239-1.0807c.3236.3619.2031.6999-.0638.9726-.424.4322-.7727.8439-.408,1.4871.3598.6348.9275.6845,1.5574.5918.0844-.0119.1686-.0308.2771-.0514.5265-.7221,1.0406-1.4752,1.6039-2.1905.6124-.8354,1.4855-1.4432,2.4816-1.7274.5125-.1734,1.0047-.4017,1.468-.681-2.348.3283-4.6624.8637-6.9161,1.5998l-.0002-.001Zm5.975,54.6136c-.5936-.3945-1.2135-.7481-1.8552-1.0583-.8639-.4392-1.7449-.8439-2.6192-1.2607-1.0342-.4939-2.0234-1.0308-2.7749-1.9463-.4023-.4907-.9956-.7853-1.6297-.8093-.5359-.0668-1.0281-.3295-1.3819-.7375-.9327-1.1595-2.0702-1.6245-3.5502-1.6519-.9443-.0171-1.8845-.3945-2.9239-.6311-.2995.2282-.6918.5506-1.1082.8404-.5249.3636-1.0911.6141-1.7605.5369-.1708-.0106-.3421.0062-.5076.0497-.9809.2041-1.5031-.1682-1.616-1.1578-.0705-.6192-.1497-1.2366-.2392-1.9794-.475,0-.9207.0087-1.3665-.0017-.7951-.0193-.9722-.355-.6573-1.0994.2359-.5588.3975-1.1493.6506-1.8972-.5542.1287-.9001.2093-1.2855.2985-.1508.2343-.2848.479-.401.7323-.2289.6055-.6764.8217-1.2821.7531-.6608-.0753-1.3009-.1904-1.6332-.8918-.7211-1.5266-.3787-3.0087.2341-4.4461.265-.6226.881-.8834,1.5626-.8593.5679.0206,1.1358.0977,1.7794.1561.2266-.5759.7947-.9435,1.4129-.9144.8618.3067,1.5134,1.0237,1.7365,1.9109.1256.4409.4681.8217.7176,1.2385.4577-.1698.5317-.4511.4301-.7805-.1313-.4928-.3054-.9732-.5203-1.4356-.2374-.4648-.2392-.8764.0723-1.2693.2732-.3637.5831-.6983.925-.9984.8244-.6793,1.547-1.4185,1.9704-2.4271.4182-.988.9776-1.844,2.1047-2.2093.2823-.091.5731-.4818.6573-.7901.1842-.6745.6298-1.0021,1.2374-.9554,1.3079.0994,2.3543-.566,3.466-.9778.2255-.47.0688-.7683-.2667-1.077-.6175-.5583-1.1694-1.185-1.6451-1.8681.4028-.0137.8286-.1116,1.2046-.0206.6454.1542,1.1686-.0223,1.6917-.35.2436-.1256.4941-.2373.7504-.3345-.3288.8113-.5868,1.4478-.8622,2.1286.6575.8816,1.5455.8766,2.5385.4461.3717-.4083.3201-.8577.0653-1.3277-.2341-.0634-.475-.1287-.8192-.2212v-3.688c-.9069-1.3104-.6781-2.8389-1.036-4.2711-.7142.4615-1.067,1.3499-2.0444,1.4391-.2582-.7959.3661-1.2298.6384-1.8577-.7107-.5951-1.4042-1.2537-2.4524-1.6312-.6918,1.0791-.5267,2.5747-1.7226,3.2746.6007,1.0377.58,1.1321-.3012,1.8405-.222.1802-.4336.3756-.6695.5351-.4728.2799-.785.7673-.8415,1.3139-.0381.1362-.098.2654-.1773.3825-.0688-.0385-.1428-.0549-.1567-.0927-.406-1.072-1.0928-1.976-1.702-2.9331-.9443-1.4819-.9086-3.0018-.0069-4.506.3166-.5847.8697-1.0047,1.5179-1.1528.3527-.1088.6851-.2745.9843-.4906.5766-.3636,1.1341-.7598,1.8604-1.2537-.3166.8953-.5781,1.6312-.8552,2.4152.6745.2659,1.2493-.0291,1.8862-.2813-.1617-.5642-.3149-1.0984-.4939-1.7187h1.4453c.4922-1.3466.8639-2.7239,1.7434-3.9246.4303.1253.7812.2264,1.1358.3293.0221.2035.0695.4035.1411.5953.4475.8319.136,1.5224-.358,2.1968-.2977.3824-.5724.7822-.8226,1.1973-.3871.6793-.401,1.3431.1842,1.9588.3114.3276.5696.7049.8381,1.0406,1.1512-.1268,1.6865-.8421,1.4301-1.8542-.0653-.2642-.1187-.5317-.1979-.8936.4303.0875.7502.1526,1.0998.2247.284-.2915.561-.5729.881-.9022-.1962-.6569-.3958-1.3297-.6074-2.0378.7554-.5351.628-1.2796.5523-1.9966-.1399-.1541-.2878-.3007-.4432-.4392-.5473-.4374-.7005-.9572-.5249-1.6536.2505-.9967.0258-1.1595-.9001-1.5832-.9913-.4528-1.6883-.1303-2.3868.5078-.3355.3083-.6901.5974-1.0067.8697v2.3878c-.5058.518-.9724,1.2761-1.8758,1.8062.1068-2.6501.7934-4.8268,3.4521-6.1444-.857-.2282-1.5127-.4014-2.1546-.5712-.6454.7872-1.2649,1.5318-1.8671,2.2899-.1004.1355-.165.2942-.1877.4613-.1239.856-.6359,1.422-1.3268,1.8902-.3462.2501-.6627.539-.9431.8612-.8571.925-1.5281.8302-2.2201-.4203.2218-.1892.4636-.3538.7211-.4906.8325-.3146,1.5318-.9056,1.9808-1.674.6247-1.0516,1.3183-2.0635,1.991-3.1046-.0447-.0925-.0877-.1784-.1308-.2677-12.1704,6.9385-20.3723,20.0056-20.3723,34.9819,0,.0532,0,.1064.0017.1596.937,1.5296,1.7419,3.1364,2.4059,4.8028.8949.7323,2.0118,1.2112,3.1975,1.5576,1.0119.295,2.0151.6166,3.0272.9073.8415.2418,1.5713.6296,2.1288,1.3327.783.9863,1.8517,1.578,3.0891,2.1134.0771-.2093.1349-.3636.191-.5203.9414.2573,1.6247,1.3722,1.3354,2.2847-.1596.4551-.3808.8862-.6573,1.2813-.2417.3145-.3415.7154-.2754,1.1065.1008.5613.1468,1.1311.1376,1.7014-.0171.6467.3166,1.0406.7487,1.4478.3748.3445.7013.738.9706,1.1699.549.9125,1.3819,1.5044,2.2234,2.0978.11.0912.2281.1722.3528.2418,1.8328.8491,2.7672,2.3317,3.1975,4.2588.3369,1.5292.886,3.0038,1.6314,4.3809.1892.3469.191.8182.1962,1.2351-.0097.6006.1876,1.1863.5588,1.6586.237.3179.3945.6879.4594,1.0791.1122.5904.4036,1.1319.8346,1.5507.136.1439.3598.295.3661.4511.0538.5676.2457,1.1135.5588,1.59,1.005.3637,2.0284.6873,3.0702.9708-.0792-.3534-.1617-.717-.2478-1.0994-.2237-.17-.4922-.3756-.8286-.6348.074-.3997.1349-.813.2289-1.2214.2185-.9365.4698-1.8663.6764-2.8044.1411-.6415.2255-1.2934-.1996-1.9161.3787-.2659.7194-.506,1.0406-.7323.0861-.6055.1877-1.1647.2393-1.7272.1359-1.4873.8793-2.6314,2.0444-3.4993.6143-.4596.7795-1.031.8554-1.7496.1721-1.6673.4319-3.3259.659-4.9881.02-.1402.054-.2781.1016-.4116.2898-.826.2071-1.2359-.519-1.7454l-.0004-.001Zm11.2119-56.3466c-3.2903-.3716-6.6135-.3434-9.8971.084-.2528.5918-.4509,1.0566-.6695,1.5763-.4956.1201-1.0136.259-1.5403.3688-.3757.0501-.6911.3075-.8157.6654-.0482.1337-.1308.254-.184.3843-.2443.5953-.6523,1.1115-.6195,1.8286.0385.8217.7434,1.0308,1.1874,1.4682.8175.8063,1.1445,1.6792.6109,2.7651-.1515.307-.2736.6261-.4286.9281-.3787.7357-.5396,1.4511.1669,2.1149-.1483.2219-.3183.4285-.5076.6166-.993.7991-1.1117,1.9228-1.1805,3.0686-.0621,1.0001-.0499,1.9983.3598,2.9384.2426.5608.5506,1.0755,1.3406,1.0635.4561-.772.931-1.5437,1.3767-2.3329.5026-.9363,1.3026-1.6786,2.2739-2.1097,1.0119-.4511,1.9706-.9897,3.0702-1.2626,1.1599-.2891,1.9428-1.1886,2.5865-2.139.1756-.2625.0757-.7531.0069-1.12-.0482-.2625-.2565-.4941-.413-.7718.358-.4186.6831-.856,1.0653-1.2351.4303-.4272.5974-.9443.697-1.5129.1222-.6997.3012-1.3911.3958-2.0945.1958-1.3901.8371-2.6793,1.8276-3.6741.253-.2642.4561-.5781.7417-.9443-.502-.2316-.971-.4513-1.4512-.6725l-.0002-.0016Zm18.3539,6.868c.1119,1.0961.2249,2.1945.339,3.2952,1.141.1628,2.1787.3122,3.2164.4613-.0119.1012.0017.1854-.0258.2041-1.172.7548-2.3336,1.5266-3.5296,2.2402-.4027.2401-.8949.3311-1.3613.4976-.7916-.8508-1.7812-1.2214-2.7879-1.5351-.5323-.1364-.97-.5145-1.1822-1.0213-2.169-.4474-4.3005.9116-4.8101,3.0669-.1495.5764-.3529,1.1408-.4991,1.717-.3083,1.2196-.9362,2.1373-2.1993,2.4032-.5351,1.2967-.296,2.4221.6471,3.1151.2374-.1029.4922-.2145.7487-.3259.7072.3825.888,1.1115,1.2925,1.7839.3235-.0566.6745-.1183.9828-.1734.3993-.7735.7641-1.4786,1.1634-2.2521-.2031-.4442-.4251-.9313-.6781-1.4854.4216-1.2385.4596-2.7137,1.8725-3.693.0414.2066.057.4174.0464.6278-.1187.5249-.2698,1.0447-.4114,1.5644-.2788,1.0258-.0017,1.4854,1.0188,1.7496.3213.0875.6316.2111.925.3686.0912.0482.1033.2436.0981.2299-.4725.4686-.9188.9628-1.3372,1.4804-.1916.3126-.3044.6669-.3288,1.0327-.1156.9194-.3276,1.1886-1.2493,1.3258-.9878.1459-1.9773.2891-2.9721.3758-.4581.0281-.8883.2299-1.2028.5642-.561.5662-1.1341,1.1235-2.0272,1.3379-.0017-.9726-.6643-1.6123-1.1306-2.362-.2203-.3534-.265-.8148-.3889-1.2264.0825-.0532.1634-.1064.2461-.1596-.3166-.2796-.6359-.5588-.9568-.8421-.9913,1.163-.925,1.6347.4047,2.6826-.6436.9443-.8639,2.0344-.8776,3.3124.955-.5145,1.7449-1.2214,2.8755-1.1948.0705.1407.1542.3052.291.5866-.9552.5147-1.8723,1.0104-2.7965,1.5077.358.7546.7176,1.5112,1.0687,2.2489-.4785.4665-.9776.4305-1.4524.4047-.4387-.0644-.8661.1732-1.0429.5799-.2443.5112-.4733,1.031-.713,1.5455-.2856.6055-.1135,1.1115.3563,1.5351.3149.2848.6506.5438.9809.8182-.0121.7084-.4371,1.1819-.8467,1.6467-.5026.5729-.9225,1.1664-.8415,2.0172-1.5644.6415-2.1305,2.0756-2.7983,3.429-.0445.074-.0709.1575-.0771.2436.0705,1.422.0998,2.8474.2505,4.2607.0447.4099.3735.8458.6831,1.1595,1.0051,1.0138,2.06,1.976,3.2147,3.0703,1.258-.1698,2.6106-.3517,3.9633-.5369.108-.0337.2185-.0589.3305-.0753,1.2098.0326,2.287.5386,3.4746.8387-.0464.4769-.0241.8577-.1291,1.1973-.1832.6052-.1131,1.2589.1944,1.8114.3906.7889.7298,1.6056,1.0928,2.4088.3754.7773.4526,1.6653.2168,2.4957-.0842.3002-.1308.6107-.1979.9159-.1995.8874-.1263,1.8143.21,2.6593.7228,1.9091,1.3104,3.8697,1.9326,5.8166.2615.82.4457,1.0406,1.2701.8491,1.2287-.2891,2.4454-.7444,3.2388-1.7719.8845-1.1458,1.8619-2.314,2.3645-3.6363.6213-1.633,1.6126-2.9881,2.5211-4.4187.4095-.6467.3837-1.3225.227-1.9725-.2009-.7206-.1067-1.4915.2617-2.1425.6213-1.0874,1.2495-2.1733,1.9396-3.2181.8949-1.3534,1.8397-2.6759,2.7896-3.9932.3235-.4494.2272-.9022.1877-1.5077-1.0599.2848-2.0565.5523-3.1149.8354-.1875-.3363-.3442-.6141-.5438-.9691.296-.132.4956-.2178.6918-.3104,1.4904-.7066,3.0202-1.3489,4.4555-2.1527.6712-.3756,1.2031-1.0342,1.7193-1.6312.3782-.3908.5268-.9499.3923-1.4769-.8966-.355-1.8293-.6997-2.7379-1.0944-.521-.2309-1.0223-.504-1.4988-.8165-.5043-.3259-.9138-.7496-.9861-1.4752.122.0205.241.0556.3546.1046,1.3665.8953,2.9358.9999,4.495,1.2092,1.3717.1835,2.8258.2212,3.9685,1.1578.741.616,1.4461,1.274,2.1117,1.9708.0379-.7084.0568-1.422.0566-2.1408.0024-13.2498-6.5252-25.6496-17.4495-33.1474l-.0002-.0017Z" fill="#d8deed" opacity=".5"/><path id="Path_24209" d="m207.8141,91.9266c-.0626.5109-.1604,1.0169-.2925,1.5145-.2642.7866-.612,1.5451-.9219,2.3171-.1451.3627-.3785.5715-.7916.4955-.5937-.5556-.58-.5814-.2224-1.2809.212-.413.3503-.8641.5286-1.314.6097-.1349.7928-.7265,1.1543-1.1346.1566-.2045.2979-.4202.4228-.6454.0403.0159.0809.0319.1228.0479Z" fill="#d8deed" opacity=".5"/></g></g><g><path d="m175.2314,50.6193h-.3182c-.5192,0-1.0347-.0045-1.5494-.0136-.1282-.0027-.23-.1082-.2282-.2373.0027-.1264.1064-.2282.2328-.2282h.0045c.511.0091,1.0247.0136,1.5403.0136h.3182c.1282,0,.2328.1046.2328.2328s-.1046.2328-.2328.2328Zm1.8621-.0264c-.1255,0-.2291-.1-.2328-.2264-.0036-.1291.0982-.2355.2264-.2391.6228-.0164,1.242-.0391,1.8567-.0682.1246,0,.2373.0937.2437.2219.0055.1282-.0937.2373-.2219.2437-.6183.0291-1.2393.0518-1.8658.0682h-.0064Zm-5.5864-.0409h-.0091c-.6256-.0245-1.2475-.0564-1.8658-.0946-.1282-.0082-.2255-.1191-.2182-.2473.0082-.1282.1118-.2164.2473-.2182.6147.0382,1.2329.07,1.8549.0946.1282.0055.2282.1137.2237.2419-.0055.1255-.1082.2237-.2328.2237Zm9.3053-.1373c-.1218,0-.2237-.0937-.2319-.2164-.0091-.1282.0873-.2391.2155-.2482.621-.0436,1.2384-.0937,1.8512-.1509.12-.0182.2428.0827.2537.21.0118.1282-.0818.2419-.21.2537-.6165.0573-1.2375.1073-1.8621.1509-.0055.0009-.0109.0009-.0164.0009Zm-13.0214-.0937c-.0064,0-.0127,0-.02-.0009-.6237-.0527-1.2439-.1127-1.8585-.1782-.1282-.0136-.2209-.1291-.2073-.2564.0136-.1282.1209-.2264.2564-.2073.611.0655,1.2275.1255,1.8494.1782.1273.0109.2228.1237.2119.2519-.01.1209-.1118.2128-.2319.2128Zm16.7302-.25c-.1173,0-.2173-.0873-.2309-.2064-.0155-.1273.0764-.2428.2046-.2573.6201-.0718,1.2339-.1509,1.8412-.2364.1518-.0082.2455.0727.2637.1982.0173.1273-.0709.2455-.1982.2637-.6128.0855-1.2302.1646-1.854.2364-.0091.0009-.0182.0018-.0264.0018Zm-20.4336-.1509c-.01,0-.02-.0009-.03-.0018-.6228-.0818-1.2393-.1709-1.8494-.2673-.1273-.02-.2137-.1391-.1937-.2664.02-.1264.1364-.2137.2664-.1937.6065.0964,1.2193.1837,1.8367.2655.1282.0173.2173.1337.2009.261-.0155.1173-.1155.2028-.2309.2028Zm24.1206-.3664c-.1118,0-.2109-.0809-.23-.1946-.0209-.1273.0655-.2473.1919-.2682.6165-.1009,1.2257-.21,1.8285-.3246.1264-.03.2482.0582.2719.1846.0245.1264-.0582.2482-.1846.2719-.6065.1164-1.2193.2255-1.8394.3282-.0127.0018-.0255.0027-.0382.0027Zm-27.7994-.21c-.0136,0-.0273-.0009-.0418-.0036-.6174-.1127-1.2284-.2319-1.834-.3582-.1255-.0264-.2064-.15-.18-.2764.0273-.1246.1418-.2028.2764-.18.6001.1264,1.2075.2455,1.8212.3564.1264.0227.21.1446.1873.271-.0209.1118-.1182.1909-.2291.1909Zm31.4583-.4901c-.1073,0-.2037-.0746-.2273-.1828-.0273-.1264.0518-.25.1773-.2773.611-.1337,1.2138-.2737,1.8094-.421.1209-.0318.251.0455.2819.1709.03.1246-.0455.251-.1709.2819-.5992.1473-1.2057.2891-1.8203.4228-.0173.0036-.0336.0055-.05.0055Zm-35.1034-.2719c-.0173,0-.0355-.0018-.0536-.0064-.6119-.1446-1.2157-.2973-1.8121-.4555-.1246-.0327-.1991-.16-.1655-.2837.0336-.1246.1664-.1991.2837-.1655.5928.1564,1.1929.3073,1.8012.4519.1255.0291.2028.1546.1728.28-.0255.1073-.1209.1791-.2264.1791Zm38.7177-.6201c-.1018,0-.1955-.0673-.2246-.1709-.0336-.1237.0391-.2519.1628-.2864.6028-.1664,1.1966-.3401,1.7812-.5219.1282-.0318.2546.0309.2919.1537s-.0309.2537-.1537.2919c-.5901.1819-1.1875.3573-1.7958.5255-.0209.0055-.0418.0082-.0618.0082Zm-42.3165-.3392c-.0218,0-.0446-.0027-.0664-.01-.6037-.1791-1.1975-.3664-1.784-.561-.1218-.0409-.1882-.1718-.1473-.2946.0409-.1209.1737-.1855.2946-.1473.581.1928,1.1711.3782,1.7694.5574.1237.0364.1937.1664.1564.2891-.03.1009-.1227.1664-.2228.1664Zm45.8763-.761c-.0964,0-.1864-.0609-.22-.1573-.0418-.1209.0227-.2537.1446-.2955.591-.2037,1.172-.4146,1.743-.6319.12-.0491.2546.0145.3001.1346.0464.12-.0145.2546-.1346.3001-.5746.2191-1.1611.4319-1.7576.6374-.0245.0091-.05.0127-.0755.0127Zm-49.4114-.4119c-.0264,0-.0536-.0045-.08-.0145-.5928-.2182-1.1748-.4437-1.7439-.6765-.1191-.0491-.1755-.1846-.1273-.3037.0491-.1191.1819-.1773.3037-.1273.5637.2309,1.1402.4546,1.7276.671.1209.0446.1828.1782.1382.2982-.0346.0946-.1237.1528-.2182.1528Zm52.8902-.9174c-.0909,0-.1764-.0536-.2146-.1418-.05-.1182.0055-.2555.1237-.3055.5765-.2437,1.1411-.4955,1.6921-.7547.1155-.0518.2555-.0055.3101.1118.0546.1164.0045.2555-.1118.3101-.5565.261-1.1266.5146-1.7085.762-.03.0127-.0609.0182-.0909.0182Zm-56.3354-.4928c-.0318,0-.0646-.0064-.0964-.0209-.5765-.261-1.1393-.5301-1.6885-.8056-.1146-.0582-.1609-.1982-.1037-.3128.0582-.1146.1973-.1591.3128-.1037.5437.2737,1.1011.5392,1.6721.7983.1164.0527.1691.1909.1155.3082-.0391.0855-.1237.1364-.2119.1364Zm59.7041-1.0911c-.0837,0-.1646-.0455-.2064-.1255-.0591-.1137-.0155-.2546.0991-.3137.5583-.2919,1.1038-.5919,1.6212-.8929.1118-.0655.2537-.0273.3182.0837s.0273.2537-.0837.3182c-.5237.3046-1.0756.6092-1.6412.9038-.0336.0182-.0709.0264-.1073.0264Zm-63.0302-.5837c-.0391,0-.0773-.0091-.1137-.03-.1864-.1037-.3719-.2091-.5546-.3164-.1109-.0646-.1482-.2073-.0837-.3182.0646-.1127.2091-.1491.3182-.0837.1809.1055.3628.2091.5474.3128.1118.0618.1518.2037.0891.3164-.0418.0764-.1218.1191-.2028.1191Z" fill="#0c2a59"/><path d="m142.4939,101.1673c-.0791,0-.1573-.0409-.2-.1146-.0655-.11-.0291-.2528.0818-.3182l.1873-.1082c.1137-.0655.2546-.0227.3164.0891.0627.1127.0227.2546-.0891.3164l-.1782.1027c-.0373.0227-.0773.0327-.1182.0327Zm64.8396,0c-.04,0-.0791-.01-.1164-.0309-.5183-.2982-1.0647-.5965-1.6257-.8874-.1137-.0591-.1582-.1991-.0991-.3137s.2-.1582.3137-.0991c.5665.2928,1.1193.5947,1.6439.8965.1109.0646.1491.2064.0855.3182-.0427.0746-.1218.1164-.2019.1164Zm-63.0156-.9874c-.0846,0-.1664-.0464-.2073-.1273-.0582-.1137-.0127-.2546.1018-.3128.5446-.2782,1.112-.5528,1.6839-.8165.1173-.0546.2537-.0027.3091.1146.0536.1173.0018.2555-.1146.3091-.5692.261-1.1257.531-1.6676.8074-.0336.0173-.07.0255-.1055.0255Zm59.7096-.7238c-.0327,0-.0664-.0073-.0982-.0218-.5528-.2564-1.1184-.5065-1.6948-.7483-.1182-.05-.1746-.1864-.1246-.3046.0491-.1182.1873-.1764.3046-.1246.5819.2437,1.1529.4955,1.7112.7556.1164.0536.1673.1928.1127.3091-.0391.0846-.1237.1346-.2109.1346Zm-56.3272-.8329c-.0909,0-.1782-.0536-.2146-.1437-.05-.1191.0064-.2546.1255-.3037.5683-.2364,1.1493-.4646,1.7412-.6847.1173-.0455.2546.0164.2991.1373.0446.12-.0164.2546-.1373.2991-.5865.2182-1.162.4446-1.7248.6774-.0291.0127-.0591.0182-.0891.0182Zm52.8929-.6065c-.0273,0-.0555-.0045-.0818-.0145-.5719-.2155-1.1538-.4246-1.7458-.6256-.1218-.0409-.1873-.1728-.1455-.2946s.1728-.1891.2946-.1455c.5974.2028,1.1848.4119,1.7603.6292.1209.0455.1809.18.1364.3001-.0355.0937-.1246.1509-.2182.1509Zm-49.406-.6956c-.0973,0-.1882-.0618-.2209-.1591-.0409-.1218.0255-.2537.1473-.2946.5837-.1955,1.1784-.3837,1.7812-.5656.1309-.0382.2546.0327.2901.1555.0373.1237-.0327.2528-.1555.2901-.5992.18-1.1884.3682-1.7685.5619-.0245.0082-.0491.0118-.0736.0118Zm45.8799-.5028c-.0227,0-.0455-.0036-.0682-.01-.5846-.1782-1.1793-.3501-1.7821-.5146-.1246-.0336-.1973-.1618-.1637-.2855s.1637-.1955.2855-.1637c.6083.1664,1.2066.3382,1.7967.5183.1227.0373.1919.1673.1546.291-.0309.1-.1227.1646-.2228.1646Zm-42.3129-.571c-.1027,0-.1973-.0682-.2246-.1728-.0336-.1237.04-.2519.1646-.2846.4373-.1182.8811-.2319,1.3284-.3428.1591-.04.3201-.0791.4819-.1173.13-.0327.251.0482.28.1728.03.1246-.0473.25-.1728.28-.16.0382-.3191.0773-.4774.1164-.4446.11-.8847.2237-1.3202.3401-.02.0055-.04.0082-.06.0082Zm38.7195-.4083c-.0182,0-.0364-.0018-.0555-.0064-.5947-.1455-1.1984-.2837-1.8085-.4146-.1255-.0264-.2055-.15-.1782-.2764.0264-.1246.1509-.2046.2764-.1782.6137.1309,1.2211.271,1.8212.4164.1246.0309.2009.1564.1709.2819-.0264.1064-.1209.1773-.2264.1773Zm-35.0989-.461c-.1082,0-.2046-.0746-.2273-.1846-.0273-.1255.0527-.2491.1791-.2755.6037-.1291,1.2148-.25,1.833-.3646.1218-.0236.2473.0609.271.1873.0227.1264-.06.2473-.1873.271-.6128.1127-1.2202.2337-1.8203.361-.0164.0036-.0327.0055-.0482.0055Zm31.461-.3228c-.0136,0-.0282-.0009-.0427-.0036-.6028-.1137-1.212-.2209-1.8276-.321-.1273-.0209-.2128-.1409-.1928-.2673.0209-.1264.1346-.2091.2673-.1928.6192.1018,1.232.2091,1.8385.3228.1264.0245.21.1455.1864.2719-.0218.1118-.1191.19-.2291.19Zm-27.7976-.3546c-.1127,0-.2109-.0809-.23-.1955-.02-.1273.0664-.2464.1928-.2673.6101-.0982,1.2275-.1882,1.8494-.2728.1218-.0155.2446.0727.2619.2s-.0727.2446-.2.2619c-.6183.0827-1.2302.1728-1.8367.271-.0127.0018-.0255.0027-.0373.0027Zm24.1233-.2428c-.01,0-.0209-.0009-.0318-.0018-.6083-.0837-1.222-.1609-1.8412-.2319-.1282-.0145-.2191-.13-.2046-.2573.0136-.1273.1173-.2237.2573-.2046.6228.0709,1.2402.1482,1.8521.2319.1273.0182.2164.1355.1991.2628-.0164.1164-.1164.2009-.2309.2009Zm-20.43-.2555c-.1173,0-.2182-.0882-.2309-.2064-.0145-.1282.0773-.2437.2046-.2573.6147-.07,1.2357-.1309,1.8603-.1855.1264-.0164.24.0837.2519.2119.0109.1282-.0837.241-.2119.2519-.621.0546-1.2366.1155-1.8476.1837-.0091.0009-.0182.0018-.0264.0018Zm16.7329-.1655c-.0064,0-.0136,0-.0209-.0009-.6119-.0555-1.2284-.1046-1.8494-.1464-.1282-.0082-.2255-.1191-.2164-.2473s.1218-.2291.2473-.2164c.6247.0418,1.2448.0909,1.8603.1464.1282.0118.2228.1246.2109.2528-.0109.1209-.1127.2119-.2319.2119Zm-13.0223-.1609c-.1218,0-.2246-.0946-.2319-.2182-.0082-.1282.0891-.2391.2173-.2464.6192-.04,1.2402-.0736,1.8658-.1h.01c.1246,0,.2273.0982.2328.2228.0055.1282-.0946.2373-.2228.2428-.6219.0264-1.2411.06-1.8567.0982-.0045.0009-.01.0009-.0145.0009Zm9.3089-.09h-.0109c-.6147-.0282-1.2329-.0491-1.8549-.0636-.1282-.0027-.23-.11-.2273-.2382s.1318-.2309.2382-.2273c.6256.0145,1.2475.0355,1.8658.0636.1282.0064.2273.1146.2219.2437-.0064.1246-.1091.2219-.2328.2219Zm-5.5846-.0673c-.1264,0-.23-.1009-.2328-.2282-.0027-.1282.0991-.2346.2282-.2373.581-.0118,1.1648-.0182,1.7512-.0182h.1164c.1282,0,.2328.1046.2328.2328s-.1046.2328-.2328.2328h-.1164c-.5828,0-1.1648.0064-1.7421.0182h-.0045Z" fill="#0c2a59"/><g><path d="m174.9132,115.6153l-.3773-.0018c-.1282-.0009-.2319-.1055-.2309-.2346.0009-.1282.1046-.2309.2328-.2309h.0018l.3737.0018c.4946-.0009.9874-.0091,1.4794-.0255h.0073c.1255,0,.2282.0991.2328.2255.0045.1282-.0964.2355-.2255.24-.4955.0164-.9938.0245-1.4939.0255Zm-2.2358-.0564h-.0118c-.6228-.0318-1.2511-.0773-1.8676-.1346-.1282-.0118-.2219-.1255-.21-.2537.0118-.1273.1227-.2319.2537-.21.6092.0564,1.2311.1018,1.8476.1328.1282.0073.2273.1164.2209.2446-.0064.1246-.1091.2209-.2328.2209Zm5.5801-.0691c-.1209,0-.2228-.0927-.2319-.2155-.01-.1282.0864-.24.2146-.2491.6147-.0473,1.2348-.1073,1.8431-.1791.12-.0118.2437.0764.2582.2037.0155.1273-.0755.2437-.2037.2582-.6147.0727-1.2411.1337-1.8631.1809-.0055.0009-.0118.0009-.0173.0009Zm-9.2853-.2755c-.01,0-.0209-.0009-.0309-.0018-.6119-.0827-1.2339-.1819-1.8494-.2928-.1264-.0227-.21-.1437-.1873-.271.0227-.1255.1391-.2155.271-.1873.6083.11,1.2239.2073,1.8276.2891.1273.0173.2173.1346.2.2619-.0164.1173-.1164.2019-.2309.2019Zm12.9823-.1637c-.1127,0-.2109-.0809-.23-.1955-.02-.1264.0655-.2464.1928-.2673.6083-.0991,1.2211-.2119,1.8203-.3364.1291-.0209.25.0546.2755.1809s-.0555.2491-.1809.2755c-.6065.1255-1.2248.24-1.8403.3401-.0127.0018-.0255.0027-.0373.0027Zm-16.6466-.4965c-.0164,0-.0336-.0018-.0509-.0055-.611-.1373-1.2229-.2891-1.8167-.4501-.1237-.0336-.1973-.1618-.1637-.2855.0346-.1237.1655-.1964.2855-.1637.5874.1591,1.192.3091,1.7967.4446.1255.0282.2046.1528.1764.2782-.0245.1082-.1209.1819-.2273.1819Zm20.2918-.2582c-.1046,0-.1991-.07-.2255-.1764-.0318-.1246.0436-.251.1691-.2819.591-.1491,1.1911-.3137,1.7849-.4901.1227-.0391.2528.0336.2891.1564.0373.1237-.0327.2528-.1564.2891-.6001.1791-1.2066.3455-1.8049.4955-.0191.0055-.0382.0073-.0564.0073Zm-23.8833-.7129c-.0236,0-.0473-.0036-.07-.0109-.5956-.1882-1.1929-.3919-1.7776-.6065-.1209-.0436-.1828-.1773-.1382-.2982s.1791-.1846.2982-.1382c.5774.2109,1.1693.4128,1.7576.5992.1227.0391.1909.1691.1518.2919-.0309.0991-.1227.1628-.2219.1628Zm27.4494-.3501c-.0964,0-.1864-.06-.22-.1564-.0418-.1218.0227-.2546.1437-.2964.5801-.2009,1.1648-.4173,1.7376-.6428.1218-.0482.2546.0118.3019.1309.0473.12-.0118.2546-.1309.3019-.5792.2282-1.1702.4474-1.7558.6501-.0255.0091-.0509.0127-.0764.0127Zm-30.9554-.9311c-.03,0-.06-.0055-.0891-.0182-.5728-.2373-1.1502-.4919-1.7158-.7556-.1164-.0546-.1673-.1928-.1127-.3091.0546-.1155.1937-.1655.3091-.1127.5601.261,1.1311.5128,1.6976.7483.1191.0491.1755.1855.1255.3037-.0364.09-.1237.1437-.2146.1437Zm34.4133-.4328c-.0891,0-.1746-.0518-.2128-.1382-.0518-.1173.0009-.2555.1182-.3073.5592-.2482,1.1211-.5128,1.6721-.7865.1155-.0555.2546-.0118.3119.1046.0573.1155.0109.2546-.1046.3119-.5565.2773-1.1257.5446-1.6903.7956-.0309.0136-.0627.02-.0946.02Zm-37.7939-1.1438c-.0364,0-.0727-.0082-.1073-.0264-.561-.2919-1.1147-.5947-1.6448-.9002-.1109-.0646-.1491-.2064-.0855-.3182.0655-.1127.2082-.1491.3182-.0855.5246.3028,1.072.6019,1.6266.8911.1146.0591.1582.2.0991.3137-.0418.08-.1227.1255-.2064.1255Zm41.1209-.5101c-.0818,0-.1609-.0436-.2037-.12-.0618-.1127-.0218-.2546.0909-.3164.5437-.301,1.082-.6128,1.5994-.9283.1082-.0646.2528-.0318.3201.0782.0664.11.0318.2528-.0782.3201-.5228.3182-1.0666.6337-1.6157.9374-.0355.02-.0746.0291-.1127.0291Zm-44.3496-1.3475c-.0427,0-.0855-.0118-.1246-.0364-.5228-.331-1.0475-.6792-1.5612-1.0365-.1055-.0736-.1318-.2182-.0582-.3237.0746-.1073.22-.1318.3237-.0582.5083.3528,1.0275.6983,1.5448,1.0256.1082.0682.1409.2128.0718.321-.0436.07-.1191.1082-.1964.1082Zm47.5238-.5846c-.0746,0-.1482-.0364-.1937-.1027-.0709-.1073-.0427-.2519.0636-.3237.5192-.3473,1.0293-.7047,1.5166-1.0611.1009-.0782.2482-.0555.3246.05.0764.1037.0536.2491-.05.3246-.4919.361-1.0074.7219-1.5312,1.0738-.04.0264-.0855.0391-.13.0391Zm-50.5834-1.5421c-.0491,0-.0991-.0155-.1409-.0473-.4983-.3801-.992-.772-1.4666-1.1657-.0982-.0818-.1118-.2291-.03-.3282.0837-.0982.23-.1118.3282-.03.4692.3901.9565.7774,1.4503,1.1529.1027.0782.1218.2246.0446.3264-.0464.06-.1155.0918-.1855.0918Zm53.5849-.6556c-.0682,0-.1355-.03-.1819-.0873-.08-.1-.0636-.2464.0364-.3273.4819-.3864.9556-.781,1.4212-1.1866.0955-.0837.2428-.0755.3282.0227.0846.0964.0746.2437-.0227.3282-.4692.4092-.9483.8092-1.4357,1.1993-.0427.0346-.0946.0509-.1455.0509Zm-56.4508-1.723c-.0555,0-.1118-.02-.1564-.06-.4601-.4164-.9183-.8492-1.3621-1.2848-.0909-.0909-.0927-.2382-.0027-.3301.0918-.09.2382-.0927.3301-.0027.4401.4337.8892.8583,1.3475,1.272.0955.0864.1027.2337.0164.3291-.0464.0509-.1091.0764-.1728.0764Zm59.255-.721c-.0618,0-.1227-.0245-.1682-.0727-.0891-.0927-.0855-.24.0082-.3282.4474-.4264.8865-.8611,1.3157-1.3039.0891-.0918.2364-.0946.3291-.0055.0927.09.0946.2373.0055.3291-.4346.4483-.8774.8865-1.3302,1.3166-.0446.0436-.1027.0646-.16.0646Zm-61.9073-1.8903c-.0618,0-.1246-.0245-.17-.0736-.4237-.4546-.8429-.9238-1.2466-1.3948-.0837-.0982-.0727-.2446.0245-.3282.1-.0837.2464-.0718.3282.0245.4019.4692.8138.9293,1.2339,1.3802.0882.0946.0827.2419-.0109.3291-.0455.0418-.1018.0627-.1591.0627Zm64.4968-.7856c-.0546,0-.11-.0191-.1546-.0582-.0964-.0855-.1046-.2328-.02-.3291.4101-.4619.8111-.9329,1.202-1.4112.08-.1.2273-.1137.3273-.0327.0991.0809.1146.2273.0327.3273-.3946.4837-.7992.9584-1.2129,1.4257-.0464.0518-.11.0782-.1746.0782Zm-66.9181-2.0404c-.0691,0-.1373-.0309-.1828-.0891-.3892-.4955-.7674-.9984-1.1238-1.4957-.0746-.1046-.0509-.25.0536-.3246.1018-.0736.2482-.0518.3246.0536.3528.4919.7265.9893,1.1111,1.4794.08.1009.0618.2473-.0391.3264-.0427.0336-.0927.05-.1437.05Zm69.2722-.8456c-.0491,0-.0973-.0155-.1391-.0464-.1037-.0773-.1246-.2228-.0473-.3255.3682-.4928.7301-1.0002,1.0766-1.5084.0736-.1073.2182-.1346.3237-.0618.1064.0727.1337.2173.0618.3237-.351.5146-.7174,1.0275-1.0893,1.5248-.0455.0618-.1155.0937-.1864.0937Zm-71.4426-2.174c-.0755,0-.15-.0373-.1946-.1046-.3382-.5146-.6719-1.0484-.9929-1.5848-.0655-.11-.03-.2528.0809-.3191.1082-.0646.2528-.0309.3191.0809.3164.5301.6474,1.0575.982,1.5666.0709.1082.0409.2519-.0664.3228-.04.0255-.0846.0382-.1282.0382Zm73.542-.9029c-.0418,0-.0846-.0109-.1227-.0355-.1091-.0673-.1428-.2109-.0746-.3201.3219-.5174.6392-1.0538.9447-1.5957.0627-.1127.2046-.15.3173-.0882.1118.0627.1509.2055.0882.3173-.3082.5474-.6301,1.0902-.9556,1.6121-.0436.0709-.12.11-.1973.11Zm-75.4478-2.2886c-.0827,0-.1628-.0436-.2046-.1218-.2919-.5383-.5792-1.0975-.8538-1.6621-.0564-.1155-.0082-.2546.1073-.311.1137-.0573.2546-.0091.311.1073.2719.5583.5565,1.1111.8447,1.6439.0609.1127.0191.2546-.0937.3155-.0355.0191-.0736.0282-.1109.0282Zm77.279-.9584c-.0355,0-.0718-.0082-.1055-.0255-.1146-.0582-.16-.1982-.1018-.3128.2791-.5483.5501-1.1102.8056-1.6712.0536-.1173.1946-.1691.3082-.1155.1173.0536.1691.1919.1155.3082-.2582.5674-.5328,1.1357-.8147,1.6894-.0409.0809-.1227.1273-.2073.1273Zm-78.9048-2.3813c-.09,0-.1755-.0518-.2137-.14-.2464-.5665-.4846-1.1484-.7074-1.7276-.0464-.12.0136-.2546.1337-.301.1164-.0482.2546.0127.301.1337.22.5737.4555,1.1484.7001,1.7094.0509.1182-.0027.2546-.1209.3064-.03.0127-.0618.0191-.0927.0191Zm80.4523-1.012c-.0291,0-.0591-.0055-.0873-.0173-.1191-.0482-.1764-.1837-.1282-.3028.2291-.5674.451-1.1511.6592-1.7358.0427-.1218.1755-.1837.2973-.1409.1209.0427.1846.1764.1409.2973-.21.5901-.4346,1.1802-.6665,1.7539-.0364.0909-.1237.1455-.2155.1455Zm-81.7853-2.4577c-.0973,0-.1882-.0609-.2209-.1582-.1982-.5901-.3855-1.1911-.5583-1.7867-.0355-.1237.0355-.2528.1591-.2882.1264-.0373.2528.0364.2882.1591.17.5892.3564,1.1838.5528,1.7667.0409.1218-.0245.2546-.1464.2955-.0245.0082-.05.0118-.0746.0118Zm83.0355-1.0602c-.0227,0-.0455-.0036-.0682-.01-.1227-.0382-.1919-.1682-.1546-.291.1809-.5883.3519-1.1875.5065-1.7812.0318-.1237.1582-.1964.2846-.1664.1246.0327.1982.16.1664.2846-.1573.5992-.3291,1.2048-.5119,1.7994-.0309.1-.1227.1646-.2228.1646Zm-84.0684-2.515c-.1055,0-.2-.0718-.2264-.1782-.1464-.6065-.2819-1.222-.4019-1.8276-.0255-.1264.0573-.2491.1828-.2737.1318-.0255.2491.0573.2737.1828.1191.6001.2528,1.2084.3983,1.8094.03.1246-.0464.251-.1718.281-.0182.0045-.0364.0064-.0546.0064Zm85.0077-1.0847c-.0164,0-.0327-.0018-.0491-.0055-.1255-.0264-.2055-.1509-.1782-.2764.1291-.6019.2464-1.2084.3519-1.8185.0218-.1264.14-.2191.2682-.19.1273.0218.2119.1418.19.2682-.1055.6174-.2246,1.2293-.3555,1.8385-.0236.1091-.12.1837-.2273.1837Zm-85.7296-2.5668c-.1137,0-.2128-.0827-.23-.1973-.0946-.6147-.1755-1.2329-.2446-1.8558-.0145-.1273.0773-.2428.2055-.2564.1264-.0164.2428.0782.2564.2055.0691.6156.15,1.2284.2428,1.8358.0191.1273-.0673.2464-.1946.2655-.0118.0018-.0236.0027-.0355.0027Zm86.3579-1.102c-.0091,0-.0191-.0009-.0291-.0018-.1282-.0164-.2182-.1328-.2019-.26.0773-.6065.1428-1.2257.1955-1.8421.0109-.1273.11-.2264.2519-.2119.1282.0109.2228.1237.2119.2519-.0527.6219-.1191,1.2484-.1973,1.8603-.0155.1182-.1155.2037-.2309.2037Zm-86.7653-2.5968c-.1218,0-.2237-.0946-.2319-.2173-.0427-.6237-.0718-1.2529-.0873-1.8703-.0027-.1282.0982-.2346.2273-.2382h.0055c.1264,0,.2291.1.2328.2273.0155.6101.0436,1.2329.0855,1.8503.0091.1282-.0882.2391-.2164.2473-.0055.0009-.01.0009-.0155.0009Zm87.079-1.112h-.01c-.1282-.0055-.2282-.1146-.2228-.2428.0264-.6037.0391-1.2266.0391-1.8512,0-.0746.0346-.14.0891-.1828-.0546-.0418-.0891-.1082-.09-.1819-.0055-.6201-.0236-1.2375-.0546-1.8512-.0064-.1282.0927-.2382.2209-.2446h.0118c.1237,0,.2264.0964.2328.2209.0309.621.0491,1.2439.0546,1.8712.0009.0746-.0346.1418-.0891.1846.0546.0427.09.1091.09.1837,0,.631-.0136,1.2602-.0391,1.8712-.0055.1246-.1082.2228-.2328.2228Zm-87.1726-2.6095h-.0036c-.1291-.0027-.2309-.1082-.2291-.2364.0109-.6265.0346-1.2502.0709-1.8694.0073-.1282.1273-.2264.2464-.2191.1282.0082.2264.1182.2191.2464-.0364.6137-.06,1.2302-.0709,1.8494-.0018.1273-.1064.2291-.2328.2291Zm87.0235-3.336c-.1191,0-.2209-.0909-.2319-.2109-.0564-.6074-.1273-1.2266-.2109-1.8394-.0173-.1273.0718-.2455.1991-.2628.1391-.0118.2455.0727.2628.1991.0846.6201.1564,1.2457.2128,1.8594.0118.1282-.0827.2419-.21.2537-.0073.0009-.0145.0009-.0218.0009Zm-86.8044-.3801c-.0073,0-.0155,0-.0236-.0009-.1273-.0136-.2209-.1273-.2082-.2555.0618-.6128.1391-1.2375.23-1.8576.0182-.1264.1246-.2182.2637-.1964.1273.0182.2155.1364.1964.2637-.0891.6128-.1655,1.2311-.2264,1.8376-.0127.12-.1137.2091-.2319.2091Zm86.3025-3.3079c-.1109,0-.2091-.0791-.2291-.1909-.11-.6101-.2328-1.2148-.3673-1.8158-.0282-.1255.0509-.25.1764-.2782s.25.0518.2782.1764c.1337.5974.2582,1.2138.371,1.834.0227.1273-.0609.2482-.1873.271-.0145.0027-.0282.0036-.0418.0036Zm-85.7678-.3755c-.0136,0-.0282-.0009-.0427-.0036-.1264-.0245-.21-.1464-.1864-.2719.1164-.6147.2464-1.2302.3873-1.8312.0291-.1246.1591-.2064.2791-.1737.1255.0291.2028.1546.1737.2791-.1391.5947-.2673,1.2048-.3819,1.8112-.0218.1118-.1191.19-.2291.19Zm84.9522-3.256c-.1027,0-.1964-.0682-.2246-.1718-.1628-.6019-.3382-1.1993-.5219-1.7776-.0391-.1218.0291-.2528.1518-.2919.1191-.0373.2528.0291.2919.1518.1855.5837.3628,1.1884.5274,1.7958.0336.1246-.04.2519-.1637.2855-.02.0055-.0409.0082-.0609.0082Zm-84.1048-.3682c-.0209,0-.0418-.0027-.0627-.0082-.1237-.0346-.1964-.1637-.1618-.2873.1673-.5974.3501-1.2002.5437-1.7921.04-.1218.1691-.19.2937-.1482.1218.04.1882.1709.1482.2937-.1909.5846-.3719,1.1811-.5365,1.7721-.0291.1027-.1227.17-.2246.17Zm82.9801-3.1797c-.0955,0-.1846-.0582-.2191-.1528-.2082-.5728-.4337-1.1538-.671-1.7258-.05-.1182.0064-.2546.1255-.3037.1182-.0509.2555.0064.3037.1255.24.5783.4692,1.1648.6801,1.7439.0436.1209-.0191.2546-.1391.2991-.0264.0091-.0536.0136-.08.0136Zm-81.8226-.3637c-.0273,0-.0546-.0045-.0818-.0145-.12-.0455-.1809-.18-.1364-.3001.2191-.5837.4537-1.1702.6965-1.7412.0509-.12.1864-.1718.3055-.1237.1182.0509.1737.1873.1237.3055-.241.5656-.4728,1.1447-.6892,1.723-.0355.0937-.1237.1509-.2182.1509Zm80.3996-3.0705c-.0873,0-.1718-.05-.2109-.1346-.261-.5592-.5337-1.112-.8165-1.6585-.0591-.1146-.0145-.2546.0991-.3137.1146-.06.2546-.0155.3137.0991.2864.5519.561,1.1102.8256,1.6767.0546.1164.0036.2546-.1127.3091-.0318.0145-.0655.0218-.0982.0218Zm-78.9402-.3619c-.0336,0-.0682-.0073-.1-.0227-.1164-.0555-.1655-.1946-.11-.3101.2673-.5601.551-1.1229.8438-1.6748.0609-.1146.2028-.1546.3146-.0964.1137.06.1564.2009.0964.3146-.2891.5456-.5701,1.1029-.8347,1.6567-.04.0837-.1237.1328-.21.1328Zm77.229-2.9369c-.08,0-.1591-.0418-.2019-.1173-.3082-.5355-.6292-1.0684-.9547-1.583-.0691-.1091-.0364-.2528.0718-.321.1109-.0691.2537-.0364.321.0718.3301.5201.6547,1.0593.9656,1.6012.0636.1109.0255.2537-.0864.3173-.0364.0209-.0764.0309-.1155.0309Zm-75.4815-.3555c-.04,0-.0809-.01-.1182-.0318-.11-.0655-.1473-.2082-.0827-.3182.321-.5474.6519-1.0838.9838-1.5966.0691-.1091.2146-.1382.3219-.0691.1082.07.1391.2146.0691.3219-.3282.5074-.6556,1.0384-.9729,1.5785-.0436.0746-.1209.1155-.2009.1155Zm73.4957-2.7859c-.0736,0-.1464-.0346-.1909-.1-.3473-.5001-.7129-1.0047-1.0875-1.4975-.0773-.1027-.0573-.2482.0446-.3264.1027-.0773.2491-.0573.3264.0446.3782.4992.7483,1.0084,1.0984,1.5139.0736.1055.0473.251-.0582.3237-.0409.0282-.0864.0418-.1328.0418Zm-71.4744-.3446c-.0464,0-.0937-.0136-.1346-.0427-.1046-.0746-.13-.22-.0555-.3246.3564-.5028.731-1.0093,1.1157-1.5057.0782-.1027.2246-.1218.3264-.0409.1018.0782.12.2246.0409.3264-.3792.4901-.751.9911-1.1029,1.4894-.0455.0636-.1173.0982-.19.0982Zm69.2258-2.6196c-.0673,0-.1337-.0291-.1791-.0846-.3919-.4737-.7992-.9447-1.2102-1.3993-.0864-.0955-.0791-.2428.0164-.3291.0955-.0873.2419-.0791.3291.0164.4155.461.8274.9365,1.2229,1.4157.0818.0991.0682.2455-.0309.3273-.0436.0364-.0955.0536-.1482.0536Zm-66.9463-.3264c-.0527,0-.1064-.0182-.15-.0546-.0982-.0837-.1109-.23-.0282-.3282.4083-.4828.8247-.9556,1.2393-1.4048.0864-.0927.2337-.1.3291-.0127.0937.0873.1.2346.0127.3291-.4092.4437-.822.9111-1.2248,1.3884-.0464.0546-.1118.0827-.1782.0827Zm64.4541-2.435c-.06,0-.1209-.0236-.1664-.07-.4237-.4319-.8692-.8674-1.3248-1.2939-.0937-.0882-.0991-.2355-.0109-.3291.0882-.0946.2364-.0982.3291-.0109.4601.431.9111.8711,1.3393,1.3084.09.0918.0882.2391-.0036.3291-.0455.0446-.1037.0664-.1628.0664Zm-61.9345-.3046c-.06,0-.1191-.0227-.1646-.0682-.0909-.0909-.0909-.2382,0-.3291.4419-.441.892-.872,1.3521-1.2948.0946-.0864.2419-.08.3291.0145.0864.0946.08.2419-.0145.3291-.4546.4173-.9011.8447-1.3375,1.2802-.0455.0455-.1055.0682-.1646.0682Zm59.215-2.2395c-.0536,0-.1082-.0182-.1518-.0564-.4692-.4037-.9511-.7992-1.4303-1.1775-.1009-.0791-.1191-.2255-.0391-.3264.0782-.1027.2255-.1182.3264-.0391.4855.3819.972.782,1.4466,1.1902.0973.0837.1082.2309.0245.3282-.0455.0536-.1109.0809-.1764.0809Zm-56.4718-.2764c-.0664,0-.1318-.0282-.1782-.0827-.0827-.0982-.07-.2455.0282-.3282.4774-.401.9629-.792,1.4557-1.1738.1018-.0809.2473-.0618.3264.0409.0791.1018.0609.2482-.0409.3264-.4892.3782-.9693.7656-1.4412,1.1629-.0436.0364-.0973.0546-.15.0546Zm53.5458-2.0276c-.0473,0-.0946-.0145-.1364-.0436-.4965-.3582-1.0093-.7119-1.5257-1.052-.1073-.0709-.1373-.2155-.0664-.3228s.2155-.1346.3228-.0664c.521.3437,1.0402.701,1.5421,1.0629.1037.0755.1273.2209.0527.3255-.0455.0627-.1173.0964-.1891.0964Zm-50.6016-.2464c-.0727,0-.1446-.0346-.19-.0982-.0746-.1055-.0491-.25.0555-.3246.501-.3546,1.0229-.7056,1.5494-1.0456.1082-.07.2519-.0391.3219.0691s.0391.2528-.0691.3219c-.5219.3364-1.0375.6847-1.533,1.0347-.0409.0291-.0882.0427-.1346.0427Zm47.4902-1.8021c-.0409,0-.0818-.0109-.12-.0327-.5219-.3128-1.0638-.6219-1.6112-.9183-.1127-.0609-.1546-.2028-.0937-.3155.0609-.1118.2009-.1555.3155-.0937.5528.2991,1.1011.6119,1.6294.9274.11.0664.1455.2091.08.3201-.0436.0727-.1209.1127-.2.1127Zm-44.3651-.2109c-.08,0-.1573-.0409-.2009-.1155-.0646-.1109-.0273-.2528.0837-.3182.5365-.3146,1.0856-.621,1.6321-.9102.1127-.0582.2546-.0182.3146.0964.06.1137.0173.2546-.0964.3146-.541.2864-1.0838.5892-1.6157.9011-.0364.0218-.0773.0318-.1173.0318Zm41.0863-1.5639c-.0346,0-.0691-.0073-.1018-.0236-.5474-.2673-1.1138-.5283-1.6848-.7765-.1182-.0518-.1718-.1882-.1209-.3064s.1873-.1718.3064-.1209c.5774.251,1.1502.5155,1.703.7856.1155.0564.1637.1955.1073.311-.04.0827-.1227.1309-.2091.1309Zm-37.803-.1737c-.0873,0-.17-.0491-.21-.1328-.0555-.1164-.0064-.2546.11-.3101.5646-.2682,1.1375-.5265,1.703-.7674.1173-.0464.2537.0045.3055.1237.05.1182-.0055.2546-.1237.3055-.5592.2373-1.1266.4928-1.6848.7583-.0327.0155-.0664.0227-.1.0227Zm34.3833-1.3139c-.0282,0-.0564-.0045-.0837-.0155-.5656-.2182-1.1529-.4301-1.7467-.6301-.1218-.0418-.1873-.1737-.1464-.2955.0409-.1209.1764-.1864.2955-.1464.6001.2028,1.1938.4164,1.7649.6374.12.0464.18.1809.1337.301-.0355.0927-.1237.1491-.2173.1491Zm-30.9654-.1382c-.0946,0-.1828-.0573-.2182-.1509-.0446-.1209.0164-.2546.1364-.3001.5865-.2191,1.1811-.4273,1.7667-.6183.1227-.0418.2537.0273.2928.1491.04.1218-.0264.2537-.1491.2928-.5783.1891-1.1666.3955-1.7467.6128-.0273.01-.0546.0145-.0818.0145Zm27.4321-1.0502c-.0218,0-.0436-.0027-.0646-.0091-.5746-.1673-1.1766-.3273-1.7903-.4764-.1246-.0309-.2009-.1564-.1709-.2819.0318-.1246.1509-.1991.2819-.1709.6192.1509,1.2284.3137,1.8085.4819.1237.0364.1946.1655.1591.2882-.03.1018-.1227.1682-.2237.1682Zm-23.8942-.1046c-.1018,0-.1955-.0673-.2246-.17-.0346-.1237.0382-.2528.1618-.2873.6028-.1682,1.2129-.3246,1.813-.4646.1218-.0318.251.0491.2791.1737.0291.1246-.0482.25-.1737.2791-.5937.1391-1.1966.2937-1.793.461-.0209.0055-.0418.0082-.0627.0082Zm20.2781-.7756c-.0145,0-.03-.0018-.0455-.0045-.6019-.1191-1.2157-.2264-1.824-.3201-.1273-.0191-.2146-.1382-.1946-.2655.0191-.1264.1446-.2146.2655-.1946.6147.0946,1.2348.2037,1.844.3237.1255.0245.2082.1473.1828.2737-.0218.1109-.1191.1873-.2282.1873Zm-16.6529-.0709c-.11,0-.2073-.0782-.2291-.19-.0236-.1255.06-.2473.1864-.2719.601-.1127,1.222-.2164,1.8458-.3073.1364-.0227.2464.07.2637.1964.0191.1273-.0691.2455-.1964.2637-.6147.09-1.2229.1909-1.8276.3055-.0145.0027-.0291.0036-.0427.0036Zm12.9741-.4946c-.0082,0-.0173,0-.0255-.0018-.6001-.0664-1.2211-.1209-1.844-.1637-.1282-.0082-.2255-.1191-.2164-.2473s.1218-.2328.2473-.2164c.6301.0418,1.2575.0973,1.864.1655.1282.0136.22.1291.2055.2564-.0127.1191-.1137.2073-.2309.2073Zm-9.2907-.04c-.1182,0-.2191-.0891-.2319-.2091-.0127-.1282.08-.2419.2082-.2555.6219-.0636,1.2493-.1137,1.8649-.15.12-.0064.2391.0909.2464.2191s-.0909.2382-.2191.2464c-.6092.0355-1.2293.0855-1.8449.1482-.0082.0009-.0164.0009-.0236.0009Zm5.5764-.21h-.0064c-.6128-.0164-1.2329-.0191-1.8503-.0082-.14.0136-.2337-.1-.2373-.2282-.0027-.1291.1-.2346.2282-.2373.6228-.0118,1.2511-.0091,1.8721.0082.1282.0036.23.1109.2264.2391-.0036.1264-.1073.2264-.2328.2264Z" fill="#0c2a59"/><path d="m174.9387,115.6153h-.0264c-.241,0-.4819-.0073-.7219-.0209-.1282-.0082-.2264-.1182-.2191-.2464s.1273-.2273.2464-.2191c.2391.0136.4864.0164.721.0209.3628,0,.7329-.0182,1.102-.0546.1437-.0155.2419.0818.2546.2091.0127.1282-.0809.2419-.2091.2546-.3837.0373-.7701.0564-1.1475.0564Zm-2.5714-.2755c-.0164,0-.0327-.0018-.0491-.0055-.6092-.1328-1.2193-.3137-1.8121-.5383-.1209-.0455-.1809-.1791-.1355-.3001.0446-.12.18-.1828.3001-.1346.5719.2155,1.1593.3901,1.7458.5183.1264.0273.2055.1509.1782.2764-.0236.1091-.12.1837-.2273.1837Zm5.5237-.1018c-.1037,0-.1982-.07-.2255-.1755-.0318-.1246.0436-.251.1682-.2828.5792-.1482,1.1611-.3428,1.7285-.5774.1191-.05.2555.0055.3037.1255.05.1191-.0064.2546-.1255.3037-.5874.2437-1.1902.4455-1.7921.5992-.0191.0045-.0382.0073-.0573.0073Zm-8.9934-1.1957c-.0373,0-.0746-.0091-.11-.0273-.5374-.2882-1.0784-.6201-1.6076-.9865-.1055-.0727-.1318-.2173-.0582-.3237.0727-.1055.2164-.1318.3237-.0582.5137.3555,1.0393.6783,1.5621.9574.1137.0609.1555.2019.0955.3155-.0418.0782-.1227.1227-.2055.1227Zm12.4204-.2146c-.0809,0-.1591-.0418-.2019-.1173-.0636-.1118-.0255-.2537.0864-.3173.5155-.2955,1.032-.6319,1.5357-1.0002.1009-.0755.2473-.0536.3255.0509.0755.1037.0527.2491-.0509.3255-.5174.3782-1.0484.7238-1.5794,1.0275-.0364.0209-.0764.0309-.1155.0309Zm-15.4773-1.894c-.0536,0-.1073-.0182-.1509-.0555-.4664-.3983-.9293-.8292-1.3748-1.282-.0909-.0918-.0891-.2391.0018-.3291.0918-.0918.2391-.0882.3291.0018.4364.4437.8892.8656,1.3457,1.2548.0982.0837.11.23.0264.3282-.0464.0536-.1118.0818-.1773.0818Zm18.4796-.291c-.0636,0-.1273-.0264-.1737-.0773-.0855-.0964-.0773-.2437.0182-.3291.4501-.4019.8947-.8338,1.3211-1.282.0891-.0927.2364-.0973.3291-.0091.0937.0891.0973.2364.0091.3291-.4355.4583-.8892.8983-1.3484,1.3093-.0446.04-.1.0591-.1555.0591Zm-21.0955-2.3513c-.0655,0-.1318-.0282-.1773-.0818-.3937-.4637-.7856-.9584-1.1666-1.4703-.0764-.1037-.0546-.2491.0482-.3264.1046-.0764.2491-.0536.3264.0482.3737.5046.7601.9911,1.1466,1.4466.0837.0982.0709.2455-.0264.3282-.0436.0373-.0973.0555-.1509.0555Zm23.6614-.3392c-.0518,0-.1046-.0173-.1482-.0527-.0991-.0818-.1137-.2282-.0318-.3282.3819-.4637.7601-.9565,1.1257-1.4639.0755-.1037.22-.1264.3255-.0527.1037.0755.1273.2209.0527.3255-.3719.5146-.7565,1.0156-1.1438,1.4875-.0464.0555-.1127.0846-.18.0846Zm-25.8846-2.645c-.0755,0-.15-.0373-.1946-.1055-.3355-.5101-.6674-1.0456-.9884-1.5912-.0646-.1109-.0282-.2537.0827-.3191.1118-.0664.2537-.0282.3191.0827.3164.5392.6447,1.0684.9756,1.573.0709.1073.0409.2519-.0673.3219-.0391.0255-.0837.0382-.1273.0382Zm28.064-.3728c-.0427,0-.0864-.0118-.1255-.0364-.1082-.0691-.14-.2137-.0709-.3219.3246-.5074.6465-1.0402.9565-1.5839.0627-.1127.2055-.1509.3173-.0864.1118.0636.15.2055.0864.3173-.3137.5501-.6392,1.0902-.9674,1.6039-.0446.0691-.12.1073-.1964.1073Zm-29.948-2.8387c-.0837,0-.1646-.0455-.2064-.1246-.2873-.5465-.5683-1.1102-.8356-1.6757-.0546-.1164-.0045-.2546.1118-.3091.1146-.0555.2555-.0064.3091.1109.2646.5583.5428,1.1166.8274,1.6576.0591.1137.0155.2546-.0982.3146-.0346.0182-.0718.0264-.1082.0264Zm31.7956-.3937c-.0364,0-.0718-.0082-.1064-.0255-.1146-.0591-.1591-.1991-.1009-.3137.2782-.5419.5474-1.0966.8101-1.6657.0536-.1173.19-.1682.3082-.1137.1173.0536.1682.1919.1137.3082-.2664.5783-.541,1.1447-.8174,1.6839-.0418.08-.1227.1264-.2073.1264Zm-33.3886-2.9723c-.09,0-.1764-.0527-.2146-.1418-.241-.5656-.4746-1.1438-.701-1.733-.0464-.12.0136-.2546.1337-.301.1173-.0482.2546.0127.301.1337.2246.5837.4564,1.1566.6956,1.7185.05.1182-.0055.2546-.1237.3055-.0291.0118-.06.0182-.0909.0182Zm34.9498-.4083c-.03,0-.06-.0055-.0891-.0182-.1191-.0491-.1755-.1846-.1255-.3037.2328-.5628.4601-1.1384.6801-1.7239.0455-.1209.1764-.1809.3001-.1364.12.0455.1809.18.1364.3001-.2219.591-.451,1.1702-.6874,1.7385-.0364.09-.1237.1437-.2146.1437Zm-36.2864-3.0669c-.0964,0-.1864-.06-.22-.1564-.2019-.5828-.3964-1.1748-.5837-1.7767-.0391-.1227.03-.2528.1528-.291s.2528.03.291.1528c.1873.5965.3801,1.1848.5801,1.7621.0418.1218-.0227.2546-.1437.2964-.0255.0091-.0509.0127-.0764.0127Zm37.5939-.4183c-.0245,0-.05-.0036-.0746-.0127-.1218-.0409-.1873-.1728-.1455-.2946.1964-.5801.3846-1.1693.5656-1.7676.0373-.1227.1655-.1946.2901-.1555.1227.0373.1928.1673.1555.2901-.1828.6037-.3728,1.1966-.571,1.7821-.0327.0973-.1227.1582-.22.1582Zm-38.7023-3.1387c-.1018,0-.1955-.0673-.2246-.17-.1655-.5937-.3246-1.1966-.4755-1.8076-.0309-.1255.0446-.251.1691-.2819.1273-.0391.2519.0446.2819.1691.1509.6074.3082,1.2048.4737,1.7949.0346.1237-.0382.2519-.1618.2873-.0209.0055-.0418.0082-.0627.0082Zm39.7852-.4255c-.02,0-.0409-.0027-.0609-.0082-.1237-.0336-.1973-.1618-.1637-.2855.16-.5919.3146-1.1911.461-1.7985.0318-.1246.1573-.2.281-.1718.1255.03.2019.1564.1718.281-.1482.611-.3028,1.2157-.4646,1.8112-.0282.1037-.1218.1718-.2246.1718Zm-40.6853-3.1887c-.1073,0-.2037-.0736-.2273-.1828-.1328-.6028-.2591-1.2129-.3782-1.8303-.0245-.1264.0582-.2482.1837-.2728.1337-.03.2491.0582.2728.1837.1191.6137.2437,1.2202.3764,1.8194.0273.1255-.0518.2491-.1773.2773-.0164.0036-.0336.0055-.05.0055Zm41.5609-.4319c-.0164,0-.0327-.0018-.0491-.0055-.1255-.0264-.2055-.15-.1782-.2764.1282-.5992.25-1.2066.3637-1.8203.0227-.1255.1418-.2137.2719-.1864.1264.0236.21.1455.1864.2719-.1155.6174-.2373,1.2284-.3673,1.833-.0227.1091-.12.1837-.2273.1837Zm-42.2665-3.2251c-.1118,0-.2109-.0809-.2291-.1946-.1027-.6101-.1973-1.2257-.2855-1.8467-.0182-.1273.07-.2455.1973-.2628.1227-.0209.2446.0691.2628.1973.0882.6174.1828,1.2293.2837,1.8358.0218.1264-.0636.2464-.1909.2673-.0127.0027-.0255.0036-.0382.0036Zm42.9503-.4364c-.0118,0-.0245-.0009-.0373-.0027-.1264-.0209-.2128-.14-.1928-.2673.0982-.6065.1891-1.2193.2728-1.8367.0182-.1264.1346-.2091.2628-.1991.1273.0173.2164.1355.1991.2628-.0855.621-.1764,1.2375-.2746,1.8476-.0191.1146-.1173.1955-.23.1955Zm-43.474-3.2515c-.1164,0-.2173-.0873-.2309-.2055-.0718-.6147-.1382-1.2339-.1973-1.8576-.0118-.1282.0818-.241.21-.2537.1291-.0191.241.0818.2537.21.0591.6201.1237,1.2357.1955,1.8467.0155.1282-.0764.2437-.2037.2582-.0091.0009-.0182.0018-.0273.0018Zm43.9777-.4392c-.0082,0-.0173,0-.0255-.0018-.1282-.0136-.22-.1291-.2055-.2564.0673-.6119.1291-1.2284.1846-1.8485.0109-.1273.11-.2273.2528-.2109.1282.0118.2228.1246.2109.2528-.0555.6237-.1173,1.242-.1864,1.8576-.0127.1191-.1137.2073-.2309.2073Zm-44.3269-3.2688c-.1209,0-.2237-.0937-.2319-.2164-.0436-.6174-.0818-1.2384-.1127-1.864-.0064-.1291.0927-.2382.2209-.2446.1455.0036.2382.0927.2446.2209.0309.6228.0673,1.2411.1109,1.8549.0091.1282-.0873.2391-.2155.2482-.0055.0009-.0109.0009-.0164.0009Zm44.656-.4401c-.0045,0-.01,0-.0155-.0009-.1282-.0082-.2255-.1191-.2164-.2473.04-.6147.0736-1.2329.1009-1.8549.0064-.1291.1173-.2209.2428-.2228.1282.0055.2282.1146.2228.2428-.0273.6256-.0609,1.2475-.1027,1.8658-.0082.1227-.11.2173-.2319.2173Zm-44.8397-3.2797c-.1255,0-.2291-.1-.2328-.2264-.0164-.6192-.0264-1.242-.03-1.8676-.0009-.1282.1027-.2328.2319-.2337h.0009c.1282,0,.2319.1037.2328.2319.0036.6219.0136,1.2411.03,1.8567.0036.1291-.0982.2355-.2264.2391h-.0064Zm45.0025-.4419h-.0055c-.1282-.0027-.23-.1091-.2273-.2382.0136-.6165.02-1.2357.02-1.8576,0-.2946-.0018-.5883-.0045-.882-.0009-.1282.1018-.2337.2309-.2346h.0018c.1273,0,.2319.1027.2328.2309.0027.2937.0045.5892.0045.8856,0,.6256-.0064,1.2484-.02,1.8685-.0027.1264-.1064.2273-.2328.2273Zm-45.0206-3.2824h-.0036c-.1282-.0018-.2309-.1082-.2291-.2364.01-.6256.0273-1.2484.0509-1.8676.0045-.1282.0837-.2228.2419-.2237.1282.0055.2282.1137.2237.2419-.0236.6156-.0409,1.2348-.0509,1.8567-.0018.1273-.1055.2291-.2328.2291Zm44.9961-1.3266c-.1255,0-.2282-.0991-.2328-.2255-.02-.6228-.0464-1.2411-.08-1.8558-.0064-.1282.0918-.2382.22-.2455h.0127c.1227,0,.2255.0964.2328.22.0336.6183.06,1.2402.08,1.8667.0036.1282-.0964.2355-.2255.24h-.0073Zm-44.8524-2.3959h-.0145c-.1282-.0082-.2255-.1191-.2182-.2473.0391-.6247.0837-1.2457.1346-1.8631.01-.1282.1337-.2328.251-.2128.1282.0109.2237.1227.2128.251-.0509.6137-.0955,1.2311-.1328,1.854-.0082.1227-.1109.2182-.2328.2182Zm44.6515-1.3221c-.1209,0-.2228-.0927-.2319-.2146-.0482-.6219-.1027-1.2393-.1637-1.8512-.0127-.1273.0809-.2419.2091-.2546.1309-.0182.2419.0818.2546.2091.0609.6156.1155,1.2348.1637,1.8603.01.1282-.0855.24-.2137.25-.0064.0009-.0127.0009-.0182.0009Zm-44.3423-2.3895c-.0082,0-.0164,0-.0245-.0009-.1282-.0136-.2209-.1291-.2073-.2564.0673-.6228.14-1.2411.22-1.8549.0164-.1273.1355-.2164.261-.2009.1273.0164.2173.1337.2009.261-.08.6101-.1528,1.2248-.2182,1.844-.0127.12-.1146.2082-.2319.2082Zm43.9723-1.3175c-.1164,0-.2164-.0864-.2309-.2046-.0764-.6183-.16-1.232-.2491-1.8403-.0191-.1264.0691-.2455.1964-.2637.1273-.0209.2446.0691.2637.1964.0909.6119.1746,1.2293.251,1.8512.0155.1273-.0746.2437-.2028.2591-.0091.0009-.0191.0018-.0282.0018Zm-43.4904-2.3759c-.0118,0-.0236-.0009-.0355-.0027-.1273-.02-.2146-.1382-.1946-.2655.0955-.6201.1991-1.2357.3091-1.844.0227-.1264.1355-.2146.271-.1873.1264.0227.21.1446.1873.271-.11.6047-.2119,1.2148-.3073,1.8312-.0182.1155-.1173.1973-.23.1973Zm42.9457-1.3084c-.1109,0-.21-.08-.2291-.1928-.1073-.6156-.22-1.2239-.3401-1.8258-.0255-.1264.0564-.2491.1828-.2737.1346-.0245.2491.0564.2737.1828.12.6056.2346,1.2175.3419,1.8367.0218.1264-.0627.2473-.1891.2691-.0136.0027-.0273.0036-.04.0036Zm-42.2838-2.3568c-.0155,0-.0318-.0018-.0473-.0045-.1255-.0264-.2064-.15-.1809-.2755.1282-.6147.2619-1.2229.4037-1.8249.0291-.1246.1509-.2037.28-.1728.1246.0291.2028.1546.1728.28-.14.5965-.2737,1.2011-.4001,1.8121-.0227.11-.12.1855-.2282.1855Zm41.5546-1.2966c-.1064,0-.2028-.0736-.2273-.1819-.1373-.6083-.2828-1.2102-.4346-1.803-.0318-.1246.0427-.2519.1673-.2837.1273-.0282.251.0436.2837.1673.1537.5983.2991,1.2038.4383,1.8176.0282.1246-.0509.2491-.1764.2782-.0173.0036-.0346.0055-.0509.0055Zm-40.7026-2.3295c-.0191,0-.0391-.0027-.0591-.0073-.1246-.0336-.1991-.1609-.1664-.2846.1609-.6092.3291-1.2093.5046-1.8012.0373-.1227.1618-.1982.2891-.1564.1227.0364.1937.1655.1564.2891-.1737.5865-.3401,1.1829-.4992,1.7867-.0282.1046-.1218.1737-.2255.1737Zm39.7797-1.2784c-.1009,0-.1946-.0664-.2237-.1682-.1718-.601-.3519-1.1929-.5383-1.7767-.0391-.1227.0282-.2537.1509-.2928.1227-.0373.2528.0282.2928.1509.1882.5874.3682,1.1848.5419,1.7894.0355.1237-.0364.2528-.1591.2882-.0218.0064-.0436.0091-.0646.0091Zm-38.7232-2.2931c-.0236,0-.0482-.0036-.0727-.0118-.1218-.04-.1882-.1718-.1482-.2937.1973-.5992.4019-1.1875.6137-1.7658.0446-.1209.1782-.1846.2982-.1382.1209.0436.1828.1773.1382.2982-.21.5728-.4128,1.1575-.6083,1.7512-.0318.0982-.1227.16-.2209.16Zm37.5893-1.2548c-.0955,0-.1855-.0591-.2191-.1546-.21-.5883-.4264-1.1684-.6501-1.7367-.0473-.12.0118-.2546.1309-.3019.12-.0464.2555.0109.3019.1309.2255.5737.4437,1.1575.6556,1.7512.0436.1209-.02.2546-.1409.2973-.0255.0091-.0518.0136-.0782.0136Zm-36.3091-2.2422c-.0291,0-.0591-.0055-.0873-.0173-.1191-.0482-.1764-.1837-.1282-.3028.2373-.5856.4819-1.1593.7356-1.7212.0509-.1182.19-.1718.3073-.1164.1173.0527.1691.19.1164.3073-.25.5565-.4928,1.1247-.7283,1.7048-.0364.0909-.1237.1455-.2155.1455Zm34.9434-1.2239c-.0891,0-.1746-.0518-.2128-.1391-.2519-.5728-.5101-1.1347-.7747-1.6839-.0564-.1155-.0082-.2546.1082-.3101.1118-.0573.2537-.0091.3101.1082.2682.5528.5283,1.1202.782,1.6985.0518.1182-.0018.2555-.1191.3064-.0309.0136-.0618.02-.0937.02Zm-33.4141-2.1713c-.0355,0-.0709-.0082-.1037-.0245-.1155-.0573-.1618-.1973-.1046-.3119.2846-.5701.5783-1.1275.8729-1.6567.0627-.1137.2055-.1537.3164-.0909.1127.0627.1528.2046.0909.3164-.2919.5237-.5819,1.0756-.8638,1.6385-.0409.0818-.1227.1291-.2082.1291Zm31.7892-1.1784c-.0827,0-.1628-.0446-.2046-.1227-.2973-.5501-.6047-1.092-.9156-1.6085-.0664-.11-.0309-.2528.0791-.3191.1082-.0673.2528-.0318.3191.0791.3155.5228.6265,1.0711.9265,1.6285.0609.1127.0191.2537-.0946.3146-.0346.0191-.0727.0282-.11.0282Zm-29.978-2.0749c-.0418,0-.0846-.0109-.1227-.0355-.1091-.0673-.1428-.2109-.0746-.3201.3337-.5374.681-1.0647,1.032-1.5657.0746-.1055.22-.13.3246-.0573.1055.0736.1309.2191.0573.3246-.3464.4937-.6892,1.0138-1.0193,1.5439-.0436.0709-.12.11-.1973.11Zm28.0558-1.1138c-.0746,0-.1473-.0355-.1928-.1018-.3482-.5146-.711-1.0193-1.0793-1.5003-.0782-.1027-.0591-.2482.0427-.3264.1037-.08.2491-.0582.3264.0427.3737.4892.7429,1.0011,1.0956,1.5221.0718.1073.0446.2519-.0618.3237-.04.0273-.0855.04-.1309.04Zm-25.9182-1.9331c-.0509,0-.1018-.0164-.1446-.0509-.1009-.08-.1173-.2264-.0373-.3264.3992-.5019.8092-.9829,1.2175-1.4284.0891-.0946.2364-.1009.3291-.0145.0946.0873.1009.2346.0145.3291-.4019.4383-.8047.9102-1.1975,1.403-.0455.0582-.1137.0882-.1819.0882Zm23.6505-1.0184c-.0646,0-.1291-.0264-.1746-.0791-.4183-.4755-.8447-.9247-1.2675-1.3375-.0918-.0891-.0937-.2364-.0036-.3291.09-.09.2373-.0946.3291-.0036.431.4201.8656.8783,1.2911,1.363.0855.0964.0755.2437-.0209.3282-.0446.0391-.0991.0582-.1537.0582Zm-21.1337-1.7194c-.0627,0-.1246-.0255-.1709-.0746-.0873-.0946-.0818-.2419.0127-.3291.4674-.4337.9502-.8429,1.4348-1.2166.0982-.0782.2464-.0618.3264.0427.0782.1018.0591.2473-.0427.3264-.4728.3646-.9447.7647-1.4021,1.1893-.0446.0409-.1018.0618-.1582.0618Zm18.4669-.8711c-.0518,0-.1037-.0173-.1473-.0527-.481-.3928-.9784-.7583-1.4784-1.0866-.1082-.0709-.1382-.2146-.0673-.3219s.2164-.1355.3219-.0673c.5146.3373,1.0247.7129,1.5184,1.1157.0991.0809.1146.2273.0327.3273-.0455.0564-.1127.0855-.18.0855Zm-15.5173-1.3857c-.0782,0-.1546-.04-.1982-.1109-.0673-.11-.0327-.2537.0764-.3201.5492-.3355,1.1102-.6337,1.6676-.8838.1182-.0546.2555-.0009.3073.1164.0527.1173.0009.2546-.1164.3073-.5392.2437-1.0829.531-1.6148.8565-.0382.0236-.08.0346-.1218.0346Zm12.4104-.6419c-.0355,0-.07-.0082-.1037-.0245-.5537-.2755-1.1202-.5119-1.6848-.7038-.1218-.0409-.1873-.1728-.1455-.2946.0409-.1218.1746-.19.2946-.1455.5846.1982,1.1711.4428,1.743.7274.1155.0573.1618.1964.1046.3119-.0409.0818-.1227.1291-.2082.1291Zm-9.0289-.8765c-.1009,0-.1937-.0655-.2237-.1673-.0355-.1237.0346-.2528.1582-.2891.6101-.1791,1.2329-.3119,1.8503-.3955.1237-.0109.2446.0727.2619.2s-.0727.2446-.2.2619c-.5937.08-1.1929.2082-1.7812.381-.0218.0064-.0436.0091-.0655.0091Zm5.5173-.3055c-.0136,0-.0273-.0009-.0418-.0036-.5965-.1082-1.2057-.17-1.8094-.1828-.1282-.0027-.23-.1091-.2273-.2382.0027-.1282.11-.2282.2382-.2273.6274.0136,1.2602.0782,1.8821.19.1264.0227.21.1437.1873.271-.02.1118-.1182.1909-.2291.1909Z" fill="#0c2a59"/><path d="m174.9132,115.6153c-.1282,0-.2328-.1046-.2328-.2328v-1.5603c0-.1282.1046-.2328.2328-.2328s.2328.1046.2328.2328v1.5603c0,.1282-.1046.2328-.2328.2328Zm0-3.4224c-.1282,0-.2328-.1046-.2328-.2328v-1.8621c0-.1282.1046-.2328.2328-.2328s.2328.1046.2328.2328v1.8621c0,.1282-.1046.2328-.2328.2328Zm0-3.7243c-.1282,0-.2328-.1046-.2328-.2328v-1.8621c0-.1282.1046-.2328.2328-.2328s.2328.1046.2328.2328v1.8621c0,.1282-.1046.2328-.2328.2328Zm0-3.7243c-.1282,0-.2328-.1046-.2328-.2328v-1.8621c0-.1282.1046-.2328.2328-.2328s.2328.1046.2328.2328v1.8621c0,.1282-.1046.2328-.2328.2328Zm0-3.7243c-.1282,0-.2328-.1046-.2328-.2328v-1.8621c0-.1282.1046-.2328.2328-.2328s.2328.1046.2328.2328v1.8621c0,.1282-.1046.2328-.2328.2328Zm0-3.7243c-.1282,0-.2328-.1046-.2328-.2328v-1.8621c0-.1282.1046-.2328.2328-.2328s.2328.1046.2328.2328v1.8621c0,.1282-.1046.2328-.2328.2328Zm0-3.7243c-.1282,0-.2328-.1046-.2328-.2328v-1.8621c0-.1282.1046-.2328.2328-.2328s.2328.1046.2328.2328v1.8621c0,.1282-.1046.2328-.2328.2328Zm0-3.7243c-.1282,0-.2328-.1046-.2328-.2328v-1.8621c0-.1282.1046-.2328.2328-.2328s.2328.1046.2328.2328v1.8621c0,.1282-.1046.2328-.2328.2328Zm0-3.7243c-.1282,0-.2328-.1046-.2328-.2328v-1.8621c0-.1282.1046-.2328.2328-.2328s.2328.1046.2328.2328v1.8621c0,.1282-.1046.2328-.2328.2328Zm0-3.7243c-.1282,0-.2328-.1046-.2328-.2328v-1.8621c0-.1282.1046-.2328.2328-.2328s.2328.1046.2328.2328v1.8621c0,.1282-.1046.2328-.2328.2328Zm0-3.7243c-.1282,0-.2328-.1046-.2328-.2328v-1.8621c0-.1282.1046-.2328.2328-.2328s.2328.1046.2328.2328v1.8621c0,.1282-.1046.2328-.2328.2328Zm0-3.7243c-.1282,0-.2328-.1046-.2328-.2328v-1.8621c0-.1282.1046-.2328.2328-.2328s.2328.1046.2328.2328v1.8621c0,.1282-.1046.2328-.2328.2328Zm0-3.7243c-.1282,0-.2328-.1046-.2328-.2328v-1.8621c0-.1282.1046-.2328.2328-.2328s.2328.1046.2328.2328v1.8621c0,.1282-.1046.2328-.2328.2328Zm0-3.7243c-.1282,0-.2328-.1046-.2328-.2328v-1.8621c0-.1282.1046-.2328.2328-.2328s.2328.1046.2328.2328v1.8621c0,.1282-.1046.2328-.2328.2328Zm0-3.7243c-.1282,0-.2328-.1046-.2328-.2328v-1.8621c0-.1282.1046-.2328.2328-.2328s.2328.1046.2328.2328v1.8621c0,.1282-.1046.2328-.2328.2328Zm0-3.7243c-.1282,0-.2328-.1046-.2328-.2328v-1.8621c0-.1282.1046-.2328.2328-.2328s.2328.1046.2328.2328v1.8621c0,.1282-.1046.2328-.2328.2328Zm0-3.7243c-.1282,0-.2328-.1046-.2328-.2328v-1.8621c0-.1282.1046-.2328.2328-.2328s.2328.1046.2328.2328v1.8621c0,.1282-.1046.2328-.2328.2328Zm0-3.7243c-.1282,0-.2328-.1046-.2328-.2328v-1.8621c0-.1282.1046-.2328.2328-.2328s.2328.1046.2328.2328v1.8621c0,.1282-.1046.2328-.2328.2328Zm0-3.7243c-.1282,0-.2328-.1046-.2328-.2328v-1.8621c0-.1282.1046-.2328.2328-.2328s.2328.1046.2328.2328v1.8621c0,.1282-.1046.2328-.2328.2328Zm0-3.7243c-.1282,0-.2328-.1046-.2328-.2328v-1.8621c0-.1282.1046-.2328.2328-.2328s.2328.1046.2328.2328v1.8621c0,.1282-.1046.2328-.2328.2328Zm0-3.7243c-.1282,0-.2328-.1046-.2328-.2328v-1.8621c0-.1282.1046-.2328.2328-.2328s.2328.1046.2328.2328v1.8621c0,.1282-.1046.2328-.2328.2328Zm0-3.7243c-.1282,0-.2328-.1046-.2328-.2328v-1.8621c0-.1282.1046-.2328.2328-.2328s.2328.1046.2328.2328v1.8621c0,.1282-.1046.2328-.2328.2328Zm0-3.7243c-.1282,0-.2328-.1046-.2328-.2328v-1.8621c0-.1282.1046-.2328.2328-.2328s.2328.1046.2328.2328v1.8621c0,.1282-.1046.2328-.2328.2328Zm0-3.7243c-.1282,0-.2328-.1046-.2328-.2328v-1.8621c0-.1282.1046-.2328.2328-.2328s.2328.1046.2328.2328v1.8621c0,.1282-.1046.2328-.2328.2328Z" fill="#0c2a59"/><path d="m218.5227,72.0058h-1.8621c-.1282,0-.2328-.1046-.2328-.2328s.1046-.2328.2328-.2328h1.8621c.1282,0,.2328.1046.2328.2328s-.1046.2328-.2328.2328Zm-3.7243,0h-1.8621c-.1282,0-.2328-.1046-.2328-.2328s.1046-.2328.2328-.2328h1.8621c.1282,0,.2328.1046.2328.2328s-.1046.2328-.2328.2328Zm-3.7243,0h-1.8621c-.1282,0-.2328-.1046-.2328-.2328s.1046-.2328.2328-.2328h1.8621c.1282,0,.2328.1046.2328.2328s-.1046.2328-.2328.2328Zm-3.7243,0h-1.8621c-.1282,0-.2328-.1046-.2328-.2328s.1046-.2328.2328-.2328h1.8621c.1282,0,.2328.1046.2328.2328s-.1046.2328-.2328.2328Zm-3.7243,0h-1.8621c-.1282,0-.2328-.1046-.2328-.2328s.1046-.2328.2328-.2328h1.8621c.1282,0,.2328.1046.2328.2328s-.1046.2328-.2328.2328Zm-3.7243,0h-1.8621c-.1282,0-.2328-.1046-.2328-.2328s.1046-.2328.2328-.2328h1.8621c.1282,0,.2328.1046.2328.2328s-.1046.2328-.2328.2328Zm-3.7243,0h-1.8621c-.1282,0-.2328-.1046-.2328-.2328s.1046-.2328.2328-.2328h1.8621c.1282,0,.2328.1046.2328.2328s-.1046.2328-.2328.2328Zm-3.7243,0h-1.8621c-.1282,0-.2328-.1046-.2328-.2328s.1046-.2328.2328-.2328h1.8621c.1282,0,.2328.1046.2328.2328s-.1046.2328-.2328.2328Zm-3.7243,0h-1.8621c-.1282,0-.2328-.1046-.2328-.2328s.1046-.2328.2328-.2328h1.8621c.1282,0,.2328.1046.2328.2328s-.1046.2328-.2328.2328Zm-3.7243,0h-1.8621c-.1282,0-.2328-.1046-.2328-.2328s.1046-.2328.2328-.2328h1.8621c.1282,0,.2328.1046.2328.2328s-.1046.2328-.2328.2328Zm-3.7243,0h-1.8621c-.1282,0-.2328-.1046-.2328-.2328s.1046-.2328.2328-.2328h1.8621c.1282,0,.2328.1046.2328.2328s-.1046.2328-.2328.2328Zm-3.7243,0h-1.8621c-.1282,0-.2328-.1046-.2328-.2328s.1046-.2328.2328-.2328h1.8621c.1282,0,.2328.1046.2328.2328s-.1046.2328-.2328.2328Zm-3.7243,0h-1.8621c-.1282,0-.2328-.1046-.2328-.2328s.1046-.2328.2328-.2328h1.8621c.1282,0,.2328.1046.2328.2328s-.1046.2328-.2328.2328Zm-3.7243,0h-1.8621c-.1282,0-.2328-.1046-.2328-.2328s.1046-.2328.2328-.2328h1.8621c.1282,0,.2328.1046.2328.2328s-.1046.2328-.2328.2328Zm-3.7243,0h-1.8621c-.1282,0-.2328-.1046-.2328-.2328s.1046-.2328.2328-.2328h1.8621c.1282,0,.2328.1046.2328.2328s-.1046.2328-.2328.2328Zm-3.7243,0h-1.8621c-.1282,0-.2328-.1046-.2328-.2328s.1046-.2328.2328-.2328h1.8621c.1282,0,.2328.1046.2328.2328s-.1046.2328-.2328.2328Zm-3.7243,0h-1.8621c-.1282,0-.2328-.1046-.2328-.2328s.1046-.2328.2328-.2328h1.8621c.1282,0,.2328.1046.2328.2328s-.1046.2328-.2328.2328Zm-3.7243,0h-1.8621c-.1282,0-.2328-.1046-.2328-.2328s.1046-.2328.2328-.2328h1.8621c.1282,0,.2328.1046.2328.2328s-.1046.2328-.2328.2328Zm-3.7243,0h-1.8621c-.1282,0-.2328-.1046-.2328-.2328s.1046-.2328.2328-.2328h1.8621c.1282,0,.2328.1046.2328.2328s-.1046.2328-.2328.2328Zm-3.7243,0h-1.8621c-.1282,0-.2328-.1046-.2328-.2328s.1046-.2328.2328-.2328h1.8621c.1282,0,.2328.1046.2328.2328s-.1046.2328-.2328.2328Zm-3.7243,0h-1.8621c-.1282,0-.2328-.1046-.2328-.2328s.1046-.2328.2328-.2328h1.8621c.1282,0,.2328.1046.2328.2328s-.1046.2328-.2328.2328Zm-3.7243,0h-1.8621c-.1282,0-.2328-.1046-.2328-.2328s.1046-.2328.2328-.2328h1.8621c.1282,0,.2328.1046.2328.2328s-.1046.2328-.2328.2328Zm-3.7243,0h-1.8621c-.1282,0-.2328-.1046-.2328-.2328s.1046-.2328.2328-.2328h1.8621c.1282,0,.2328.1046.2328.2328s-.1046.2328-.2328.2328Zm-3.7243,0h-1.5594c-.1282,0-.2328-.1046-.2328-.2328s.1046-.2328.2328-.2328h1.5594c.1282,0,.2328.1046.2328.2328s-.1046.2328-.2328.2328Z" fill="#0c2a59"/></g></g></g><rect x="125.7756" y="147.5973" width="48.2589" height="20.8267" rx="4.7409" ry="4.7409" fill="#fff" filter="url(#drop-shadow-4)" stroke="#e44d26" stroke-miterlimit="10" stroke-width=".75"/><g><path d="m136.2198,154.3955c-.4133-.2266-.924-.3399-1.5312-.3399h-2.9668v7.91h1.433v-2.673h1.5144c.6098,0,1.1241-.1124,1.5409-.3372.4169-.2257.7329-.5355.9462-.9293.2142-.3939.3204-.8444.3204-1.3515,0-.5018-.1062-.9506-.3186-1.3462-.2124-.3947-.5249-.7063-.9382-.9329Zm-.3673,3.0243c-.1089.216-.277.3859-.5036.5098s-.5178.185-.8727.185h-1.3214v-2.8615h1.3135c.3576,0,.6505.0602.8789.1797.2275.1195.3965.2868.5054.5001.1098.2142.1646.4611.1646.7417s-.0549.5293-.1646.7452Z" fill="#e44d26"/><path d="m143.2049,158.7661c.4169-.2027.7329-.4895.9479-.8612.2151-.3726.3222-.8116.3222-1.3197,0-.5045-.1062-.9462-.3186-1.3259-.2124-.3806-.5249-.6753-.9382-.8869-.4133-.2107-.924-.3169-1.5312-.3169h-2.9668v7.91h1.433v-2.8969h1.4581l1.5547,2.8969h1.5994l-1.7203-3.1475c.0503-.0205.1121-.0289.1599-.0521Zm-3.0518-3.5129h1.3135c.3576,0,.6505.0522.8771.1567.2257.1044.3947.2558.5054.4558.1106.1991.1664.439.1664.7196,0,.2815-.0549.5178-.1646.709-.1089.1921-.277.3372-.5036.4363s-.5178.1487-.8727.1487h-1.3214v-2.6261Z" fill="#e44d26"/><path d="m151.0893,154.4309c-.547-.3222-1.1674-.4833-1.8596-.4833-.693,0-1.3126.1611-1.8596.4833-.5479.3213-.9798.786-1.2984,1.3922-.3177.6063-.4762,1.3356-.4762,2.1879,0,.8497.1584,1.5772.4762,2.1835.3186.6063.7506,1.0718,1.2984,1.3949.547.3231,1.1665.4841,1.8596.4841.6921,0,1.3126-.1611,1.8596-.4824.547-.3222.9798-.786,1.2975-1.3922s.4771-1.3356.4771-2.1879-.1593-1.5816-.4771-2.1879-.7506-1.071-1.2975-1.3922Zm.054,5.0999c-.1868.4133-.4452.7258-.7745.9382s-.709.3186-1.1391.3186-.8099-.1062-1.14-.3186c-.3293-.2124-.5877-.5249-.7736-.9382-.1868-.4133-.2806-.9196-.2806-1.5197s.0938-1.1072.2806-1.5197c.1859-.4133.4443-.7267.7736-.9391.3301-.2124.7098-.3186,1.14-.3186s.8099.1062,1.1391.3186.5877.5257.7745.9391c.1868.4125.2797.9196.2797,1.5197s-.0929,1.1064-.2797,1.5197Z" fill="#e44d26"/><polygon points="160.3225 154.0557 158.6886 154.0557 156.9388 156.9526 156.8768 156.9526 155.135 154.0557 153.494 154.0557 155.9617 158.0111 153.4631 161.9657 155.1155 161.9657 156.8768 159.0883 156.9388 159.0883 158.7001 161.9657 160.3605 161.9657 157.885 158.0111 160.3225 154.0557" fill="#e44d26"/><polygon points="166.4703 154.0557 164.5346 157.5553 164.4576 157.5553 162.5228 154.0557 160.9049 154.0557 163.7814 159.0148 163.7814 161.9657 165.2108 161.9657 165.2108 159.0148 168.0882 154.0557 166.4703 154.0557" fill="#e44d26"/></g><g><path d="m42.9682,114.7006c-.22,0-.4155-.1573-.4574-.381-.1027-.5601-.1919-1.1084-.2682-1.6439-.0364-.2546.1409-.4901.3955-.5265.251-.03.4892.14.5265.3955.0746.5228.1618,1.0584.2628,1.6057.0464.2528-.1209.4955-.3737.5428-.0291.0045-.0573.0073-.0855.0073Zm-.5446-4.2189c-.2419,0-.4455-.1873-.4637-.4328-.0527-.7465-.08-1.4884-.08-2.2049l.0036-.441c.0036-.2573.2237-.5001.471-.4601.2573.0036.4637.2146.4601.471l-.0036.4328c0,.6919.0264,1.4112.0782,2.1367.0182.2564-.1755.4792-.4319.4974-.0109.0009-.0218.0009-.0336.0009Zm.0991-5.2055c-.0191,0-.0382-.0009-.0573-.0036-.2555-.0309-.4373-.2628-.4055-.5183.1109-.9083.2728-1.7885.4828-2.6168.0627-.2491.3091-.4019.5656-.3364.2491.0627.4001.3155.3364.5656-.1991.7901-.3546,1.6312-.461,2.5004-.0282.2364-.2291.4092-.461.4092Zm1.292-5.0272c-.0609,0-.1218-.0118-.1809-.0364-.2373-.1-.3482-.3737-.2482-.6101.3537-.8365.7738-1.6348,1.2475-2.3731.14-.2164.4273-.2782.6437-.14.2164.1391.2791.4273.14.6437-.4455.6928-.8401,1.4439-1.1729,2.2313-.0755.1782-.2482.2846-.4292.2846Zm2.8105-4.3553c-.1146,0-.2291-.0418-.3191-.1264-.1873-.1755-.1964-.4701-.02-.6583.6065-.6456,1.283-1.2466,2.0085-1.7849.2073-.1528.4992-.11.651.0964.1537.2064.11.4983-.0964.651-.6819.5055-1.3157,1.0693-1.8849,1.6757-.0918.0973-.2155.1464-.3392.1464Zm4.1616-3.1024c-.1691,0-.3319-.0927-.4146-.2537-.1173-.2291-.0264-.5092.2028-.6265.7829-.3992,1.613-.7492,2.4686-1.0393.2428-.0791.5083.0482.5901.2919.0827.2428-.0482.5074-.2919.5901-.8129.2755-1.6012.6074-2.3431.9865-.0682.0346-.14.0509-.2119.0509Zm4.9318-1.6839c-.2182,0-.4128-.1537-.4564-.3764-.0491-.2519.1155-.4965.3682-.5465,1.6112-.3146,2.6541-.3301,2.6905-.321.2555,0,.4628.2055.4655.461.0018.2573-.2046.4674-.461.4701-.01,0-1.0284.0136-2.5168.3046-.03.0055-.06.0082-.09.0082Z" fill="#22a682"/><path d="m54.9866,95.2635c-.0991,0-.1991-.0309-.2837-.0964-.2037-.1564-.2419-.4483-.0855-.6528l3.1887-4.1571-4.158-3.1897c-.2037-.1564-.2419-.4483-.0855-.6528.1573-.2037.4501-.2428.6528-.0855l4.5272,3.4724c.2037.1564.2419.4483.0855.6528l-3.4724,4.5272c-.0918.1191-.23.1819-.3692.1819Z" fill="#22a682"/></g><g><path d="m180.8988,153.5965c-.1746,0-.3428-.0991-.4219-.2682-.1091-.2337-.0082-.5101.2246-.6192.5046-.2355.992-.4755,1.4612-.7183.2264-.1173.5083-.0291.6274.2.1182.2282.0282.5092-.2.6274-.4801.2482-.9784.4937-1.4939.7347-.0636.03-.1309.0436-.1973.0436Zm3.7534-2.0022c-.1564,0-.3091-.0791-.3973-.2228-.1337-.2191-.0646-.5055.1546-.6401.7538-.4601,1.4721-.9411,2.134-1.4275.2055-.1528.4983-.11.6501.0991.1528.2064.1082.4983-.0991.6501-.6828.5028-1.423.9984-2.1995,1.473-.0755.0464-.16.0682-.2428.0682Zm4.1853-3.0987c-.1264,0-.2519-.0509-.3437-.1518-.1737-.19-.16-.4846.03-.6574.6456-.5883,1.242-1.2038,1.773-1.8285.1664-.1964.461-.22.6556-.0536.1964.1664.22.4601.0536.6556-.5565.6556-1.1811,1.2993-1.8549,1.914-.0891.0818-.2019.1218-.3137.1218Zm3.3488-3.9762c-.0837,0-.1682-.0218-.2446-.0691-.2182-.1346-.2864-.4219-.1518-.641.4483-.7274.8311-1.4857,1.1384-2.2531.0955-.2382.3655-.3555.6047-.2591.2391.0955.3546.3655.2591.6047-.3264.8174-.7329,1.623-1.2093,2.3968-.0882.1428-.241.2209-.3964.2209Zm1.9176-4.8208c-.0309,0-.0618-.0027-.0918-.0091-.2528-.05-.4164-.2955-.3655-.5474.1628-.8156.2537-1.6594.2691-2.5086.0045-.2546.2119-.4574.4655-.4574h.0082c.2573.0045.4619.2173.4574.4737-.0164.9056-.1137,1.8049-.2873,2.6741-.0446.2219-.2382.3746-.4555.3746Zm.1064-5.1918c-.2273,0-.4255-.1664-.4601-.3983-.12-.8183-.3064-1.6521-.5546-2.4786-.0746-.2455.0655-.5055.3119-.5792.2428-.0764.5055.0655.5792.3119.2619.8692.4583,1.7476.5856,2.6114.0373.2537-.1391.491-.3937.5283-.0227.0027-.0455.0045-.0682.0045Zm-1.4875-4.9872c-.1764,0-.3455-.1009-.4237-.2728-.6256-1.3766-1.2029-2.2104-1.2084-2.2186-.1464-.2109-.0955-.501.1155-.6483.21-.1464.5001-.0964.6483.1155.0255.0364.6283.9056,1.292,2.3659.1064.2346.0027.5101-.2309.6165-.0627.0282-.1282.0418-.1928.0418Z" fill="#3686e0"/><path d="m189.7649,132.5355c-.0455,0-.0909-.0064-.1364-.0209-.2464-.0755-.3837-.3355-.3082-.581l1.6748-5.4546c.0746-.2473.3355-.3883.581-.3082l5.4546,1.6748c.2464.0755.3837.3355.3082.581-.0755.2464-.3392.3864-.581.3082l-5.01-1.5375-1.5385,5.0091c-.0609.2009-.2455.3291-.4446.3291Z" fill="#3686e0"/></g></g></g></svg>